<svg width="1415" height="233" viewBox="0 0 1415 233" fill="none" xmlns="http://www.w3.org/2000/svg">
<path d="M1391.74 124.581C1391.71 124.581 1391.71 124.581 1391.74 124.581L1378.64 124.65C1378.02 124.65 1377.5 125.169 1377.5 125.791V127.762C1377.5 128.384 1378.02 128.903 1378.64 128.903L1382.79 128.868L1382.82 137.339C1382.82 137.65 1382.93 137.927 1383.17 138.135C1383.37 138.342 1383.69 138.48 1384 138.48H1386.45C1386.76 138.48 1387.07 138.342 1387.28 138.135C1387.49 137.927 1387.59 137.65 1387.59 137.339L1387.56 128.868L1391.74 128.834C1392.05 128.834 1392.36 128.696 1392.57 128.488C1392.78 128.281 1392.88 128.004 1392.88 127.693V125.722C1392.88 125.065 1392.36 124.581 1391.74 124.581Z" fill="black"/>
<path d="M1412.04 125.861C1412.04 125.238 1411.55 124.754 1410.9 124.754H1408.44C1408.03 124.754 1407.68 124.962 1407.47 125.307L1403.5 131.773L1399.45 125.376C1399.24 125.031 1398.83 124.858 1398.48 124.858H1396.03C1395.41 124.858 1394.89 125.376 1394.89 125.999L1394.96 137.374C1394.96 137.996 1395.48 138.48 1396.1 138.48H1398.48C1399.11 138.48 1399.63 137.962 1399.63 137.339L1399.59 133.64L1402.32 137.927C1402.53 138.273 1402.91 138.446 1403.29 138.446H1403.74C1404.15 138.446 1404.5 138.238 1404.71 137.893L1407.4 133.571L1407.44 137.305C1407.44 137.616 1407.54 137.893 1407.78 138.1C1407.99 138.307 1408.3 138.446 1408.61 138.446H1411C1411.31 138.446 1411.59 138.307 1411.83 138.1C1412.04 137.893 1412.14 137.616 1412.14 137.305L1412.04 125.861Z" fill="black"/>
<path d="M686.553 0H569.655C566.302 0 563.57 2.69684 563.57 6.08518V222.628C563.57 225.981 566.302 228.713 569.655 228.713H641.571C644.925 228.713 647.656 225.981 647.656 222.628V151.887C647.656 148.534 650.353 145.837 653.672 145.802L692.5 145.56C732.261 145.56 764.623 113.198 764.623 73.437C764.623 31.6706 731.051 0 686.553 0ZM668.056 88.1313H654.087C650.734 88.1313 648.002 85.6419 648.002 82.5993V74.8892C648.002 71.8466 650.734 69.3572 654.087 69.3572H668.056C673.726 69.3572 678.359 73.5753 678.359 78.7615C678.359 83.9132 673.726 88.1313 668.056 88.1313Z" fill="black"/>
<path d="M998.488 0C995.134 0 992.402 2.73141 992.402 6.08518V65.8997C992.402 69.2534 995.134 71.9849 998.488 71.9849H1054.43C1057.78 71.9849 1059.41 74.4743 1058.06 77.5514L994.166 223.215C992.817 226.258 994.442 228.782 997.796 228.782H1189.44C1192.8 228.782 1195.53 226.05 1195.53 222.697V160.254C1195.53 156.901 1192.8 154.169 1189.44 154.169H1140.14C1136.79 154.169 1135.13 151.645 1136.48 148.603L1197.81 5.56655C1199.13 2.48939 1197.47 0 1194.15 0H998.488V0Z" fill="black"/>
<path d="M1215.13 0C1211.78 0 1209.05 2.73141 1209.05 6.08518V65.8997C1209.05 69.2535 1211.78 71.9849 1215.13 71.9849H1271.08C1274.43 71.9849 1276.05 74.4743 1274.71 77.5514L1210.81 223.146C1209.46 226.189 1211.09 228.713 1214.44 228.713H1406.09C1409.44 228.713 1412.18 225.981 1412.18 222.628V160.255C1412.18 156.901 1409.44 154.169 1406.09 154.169H1356.79C1353.43 154.169 1351.77 151.645 1353.12 148.603L1414.46 5.56655C1415.77 2.52397 1414.11 0 1410.79 0H1215.13Z" fill="black"/>
<path d="M973.109 0.449473H891.443C888.055 0.449473 885.289 3.18089 885.289 6.53465V135.084C885.289 135.084 885.773 147.635 878.097 147.635C870.214 147.635 870.595 135.188 870.595 135.188V98.0543V6.08518C870.595 2.73141 867.829 0 864.44 0H783.086C779.697 0 776.931 2.73141 776.931 6.08518V145.768C776.931 191.199 812.924 228.471 868.278 232.447C871.494 232.689 874.778 232.827 878.097 232.827C942.822 232.827 979.264 193.861 979.264 145.802V6.53465C979.264 3.14631 976.532 0.449473 973.109 0.449473Z" fill="black"/>
<path d="M90.1367 152.579C86.7829 152.579 84.0515 149.847 84.0515 146.494V6.08518C84.0515 2.73141 81.3201 0 77.9663 0H6.08518C2.73141 0 0 2.73141 0 6.08518V222.904C0 226.258 2.73141 228.989 6.08518 228.989H196.005C199.359 228.989 202.09 226.258 202.09 222.904V158.629C202.09 155.276 199.359 152.544 196.005 152.544H90.1367V152.579Z" fill="black"/>
<path d="M410.991 71.9503C414.345 71.9503 417.076 69.2189 417.076 65.8651V6.08518C417.076 2.73141 414.345 0 410.991 0H220.726C217.372 0 214.64 2.73141 214.64 6.08518V222.904C214.64 226.258 217.372 228.989 220.726 228.989H292.987C296.341 228.989 301.804 228.989 305.123 228.989H410.991C414.345 228.989 417.076 226.258 417.076 222.904V158.629C417.076 155.276 414.345 152.544 410.991 152.544H305.123C301.769 152.544 299.038 149.813 299.038 146.459V139.44C299.038 136.087 301.769 133.355 305.123 133.355H355.084C358.437 133.355 361.169 130.624 361.169 127.27V97.2937C361.169 93.9399 358.437 91.2085 355.084 91.2085H305.123C301.769 91.2085 299.038 88.4771 299.038 85.1233V77.9663C299.038 74.6126 301.769 71.8811 305.123 71.8811H410.991V71.9503Z" fill="black"/>
</svg>
