<svg width="71" height="28" viewBox="0 0 71 28" fill="none" xmlns="http://www.w3.org/2000/svg">
<g clip-path="url(#clip0)">
<path d="M69.7843 13.985C64.6782 15.7142 60.271 17.6557 56.5934 19.7488C52.9157 21.842 49.846 24.2082 47.3841 26.7868C47.9919 24.5722 48.6302 22.4487 49.2989 20.4466C49.9979 18.4444 50.7274 16.5332 51.5176 14.7131L1.21582 15.3805V12.5592L51.5176 13.257C50.7274 11.4368 49.9675 9.55598 49.2989 7.55382C48.6302 5.55165 47.9919 3.42814 47.3841 1.21362C49.846 3.82251 52.8853 6.15837 56.5934 8.25154C60.2406 10.3447 64.6478 12.2559 69.7843 13.985Z" fill="black"/>
<path d="M47.384 28.0001C47.1712 28.0001 46.9889 27.9394 46.7761 27.8484C46.2898 27.5754 46.0467 26.999 46.1986 26.4833C46.8065 24.2385 47.4448 22.0846 48.1438 20.0825C48.6301 18.687 49.1468 17.3219 49.6635 15.9871L1.24615 16.5938C0.911815 16.5938 0.607877 16.4725 0.364726 16.2298C0.121575 16.0175 0 15.7141 0 15.3804V12.5592C0 12.2255 0.121575 11.9221 0.364726 11.7098C0.607877 11.4974 0.911815 11.3761 1.24615 11.3761L49.6939 12.0435C49.1468 10.739 48.6605 9.3739 48.1742 7.94811C47.4448 5.91561 46.8065 3.76176 46.1986 1.51691C46.0467 0.970864 46.2898 0.424819 46.7761 0.151796C47.2624 -0.121227 47.8703 -0.0302194 48.2654 0.394483C50.6057 2.88202 53.6147 5.18755 57.1708 7.22005C60.7573 9.28289 65.134 11.1637 70.149 12.8625C70.6353 13.0142 70.9696 13.4996 70.9696 14.0153C70.9696 14.531 70.6353 14.986 70.149 15.168C65.134 16.8669 60.7573 18.778 57.1708 20.8409C53.6147 22.8734 50.6057 25.1789 48.235 27.6664C48.0223 27.8788 47.6879 28.0001 47.384 28.0001ZM52.4902 14.0153C52.5205 14.0456 52.5205 14.0456 52.5509 14.076C52.7941 14.4097 52.8245 14.8647 52.6421 15.2287C51.8519 16.9882 51.1224 18.8994 50.4538 20.8409C50.2106 21.5082 49.9979 22.2363 49.7547 22.934C51.6087 21.4172 53.6755 19.9914 55.9854 18.687C58.9336 17.0185 62.3378 15.4411 66.1674 13.9849C62.3378 12.5592 58.9033 10.9817 55.9551 9.28289C53.6755 7.97845 51.5783 6.55266 49.7547 5.06621C49.9675 5.76393 50.2106 6.46166 50.4234 7.15938C51.092 9.13121 51.8215 11.012 52.6117 12.7715C52.7637 13.1355 52.7333 13.5906 52.5205 13.9243C52.5205 13.9546 52.4902 13.9849 52.4902 14.0153ZM2.43151 13.8029V14.167L15.6224 13.9849L2.43151 13.8029Z" fill="black"/>
</g>
<defs>
<clipPath id="clip0">
<rect width="71" height="28" fill="white"/>
</clipPath>
</defs>
</svg>
