<svg width="1226" height="669" viewBox="0 0 1226 669" fill="none" xmlns="http://www.w3.org/2000/svg">
<path d="M156.975 296.229C71.5331 296.229 0 337.98 0 391.66C0 445.339 71.5331 487.09 156.975 487.09C244.405 487.09 313.951 445.339 313.951 391.66C313.951 337.98 244.405 296.229 156.975 296.229Z" fill="#FFD340"/>
<path d="M1071.01 483.113C1156.61 483.113 1226 442.167 1226 391.659C1226 341.15 1156.61 300.205 1071.01 300.205C985.414 300.205 916.023 341.15 916.023 391.659C916.023 442.167 985.414 483.113 1071.01 483.113Z" fill="#FFD340"/>
<path d="M613.991 397.626C657.706 397.626 693.472 361.84 693.472 318.101C693.472 274.362 657.706 238.575 613.991 238.575C570.276 238.575 534.51 274.362 534.51 318.101C534.51 361.84 570.276 397.626 613.991 397.626Z" fill="#FFD340"/>
<path d="M284.145 3.97536C250.365 -3.97716 214.598 1.98723 184.793 19.8804C156.975 39.7617 135.117 67.5955 127.169 101.394C119.221 135.192 125.182 170.978 145.052 200.8C182.806 262.432 264.274 280.326 325.872 242.551C387.47 204.777 405.353 123.263 367.6 61.6312C347.73 31.8092 319.911 11.9279 284.145 3.97536ZM345.742 91.4531C343.755 93.4412 339.781 91.4531 335.807 89.465C307.989 71.5718 266.261 75.5481 232.482 95.4294C202.676 115.311 182.806 147.121 182.806 182.907C182.806 184.895 182.806 186.883 182.806 186.883C182.806 190.86 180.819 192.848 178.832 194.836C176.845 194.836 174.858 194.836 172.871 190.86L170.884 188.872C170.884 186.883 168.897 186.883 168.897 184.895C145.052 139.168 160.949 79.5243 204.663 51.6905C228.508 37.7736 254.339 31.8092 282.157 37.7736C307.989 43.738 331.833 59.643 345.742 83.5006C347.729 85.4887 347.729 89.465 345.742 91.4531Z" fill="#CACACA"/>
<path d="M1041.21 242.551C1043.19 242.551 1043.19 242.551 1041.21 242.551C1102.8 202.788 1120.69 123.263 1082.93 61.6312C1065.05 31.8092 1035.24 11.9279 1001.46 3.97536C967.685 -3.97716 931.919 1.98723 902.113 19.8804C872.308 37.7736 852.437 67.5955 844.489 101.394C836.541 135.192 842.502 170.978 862.373 200.8C900.126 262.432 981.595 280.326 1041.21 242.551ZM900.126 184.895C900.126 186.883 900.126 188.872 900.126 188.872C900.126 192.848 898.139 194.836 896.152 196.824C894.165 196.824 892.178 196.824 890.191 192.848L888.204 190.86C888.204 188.872 886.217 188.872 886.217 186.883C860.386 139.168 876.282 79.5243 921.984 51.6905C945.828 37.7736 971.659 31.8092 999.478 37.7736C1025.31 43.738 1049.15 59.643 1063.06 83.5006C1065.05 87.4769 1065.05 91.4531 1063.06 91.4531C1061.08 91.4531 1059.09 91.4531 1055.11 89.465C1027.3 71.5718 985.569 75.5481 951.789 95.4294C921.984 117.299 902.113 149.109 900.126 184.895Z" fill="#CACACA"/>
<path d="M774.938 481.126H443.104C437.143 481.126 433.169 485.103 433.169 491.067C433.169 588.485 512.65 668.011 610.015 668.011C707.379 668.011 786.861 588.485 786.861 491.067C786.861 485.103 780.9 481.126 774.938 481.126Z" fill="#FFD340"/>
</svg>
