<svg width="1227" height="670" viewBox="0 0 1227 670" fill="none" xmlns="http://www.w3.org/2000/svg">
<path d="M156.975 296.23C71.5331 296.23 0 337.98 0 391.66C0 445.34 71.5331 487.09 156.975 487.09C244.405 487.09 313.951 445.34 313.951 391.66C313.951 337.98 244.405 296.23 156.975 296.23Z" fill="#FFD340"/>
<path d="M1071.01 483.113C1156.61 483.113 1226 442.168 1226 391.659C1226 341.15 1156.61 300.205 1071.01 300.205C985.414 300.205 916.023 341.15 916.023 391.659C916.023 442.168 985.414 483.113 1071.01 483.113Z" fill="#FFD340"/>
<path d="M613.991 397.626C657.706 397.626 693.472 361.84 693.472 318.101C693.472 274.362 657.706 238.576 613.991 238.576C570.276 238.576 534.51 274.362 534.51 318.101C534.51 361.84 570.276 397.626 613.991 397.626Z" fill="#FFD340"/>
<path d="M774.938 481.127H443.104C437.143 481.127 433.169 485.103 433.169 491.067C433.169 588.486 512.65 668.011 610.015 668.011C707.379 668.011 786.861 588.486 786.861 491.067C786.861 485.103 780.9 481.127 774.938 481.127Z" fill="#FFD340"/>
</svg>
