<?xml version="1.0" encoding="UTF-8"?>
<svg width="332px" height="54px" viewBox="0 0 332 54" version="1.1" xmlns="http://www.w3.org/2000/svg" xmlns:xlink="http://www.w3.org/1999/xlink">
    <!-- Generator: Sketch 64 (93537) - https://sketch.com -->
    <title>icons</title>
    <desc>Created with Sketch.</desc>
    <g id="Page-1" stroke="none" stroke-width="1" fill="none" fill-rule="evenodd">
        <g id="icons" fill="#000000" fill-rule="nonzero">
            <g id="Group">
                <path d="M0.21,3.32 C1.43,3 2.58,2.69 4.14,2.28 C4.75,4.5 5.32,6.56 5.93,8.8 C11.16,8.45 13.61,4.57 16.52,0.73 C19.45,5.58 23.09,9.21 28.99,9.22 C34.92,9.23 38.58,5.6 41.54,0.66 C44.24,4.62 46.82,8.2 52.04,8.88 C52.63,6.8 53.22,4.75 53.89,2.38 C55.36,2.73 56.68,3.05 58.24,3.42 C55.77,13.23 53.37,22.79 50.96,32.34 C49.43,38.4 47.81,44.44 46.39,50.53 C45.93,52.49 45.09,53.21 43.07,53.1904042 C33.62,53.1 24.18,53.1904042 14.73,53.05 C13.77,53.04 12.17,52.07 11.96,51.26 C7.91,35.54 4.01,19.79 0.09,4.04 C0.06,3.94 0.12,3.83 0.21,3.32 Z M7.25,14.15 C9.95,24.84 12.67,35.79 15.58,46.7 C15.79,47.5 17.39,48.44 18.36,48.46 C25.39,48.61 32.42,48.48 39.45,48.57 C41.44,48.6 42.32,47.95 42.79,45.94 C44.57,38.36 46.57,30.83 48.48,23.28 C49.28,20.13 50.05,16.97 50.75,14.13 C47.37,12.28 44.42,10.66 41.37,8.98 C31.46,15.62 25.74,15.59 16.73,8.9 C13.67,10.6 10.72,12.23 7.25,14.15 Z" id="Shape"></path>
                <path d="M35.08,24.98 C37.54,24.92 39.77,27.02 39.83,29.46 C39.88,31.9 37.77,34.08 35.3,34.15 C32.74,34.22 30.73,32.28 30.66,29.68 C30.6,27.07 32.5,25.04 35.08,24.98 Z" id="Path"></path>
                <path d="M27.4200377,29.55 C27.43,32.13 25.45,34.1400354 22.89,34.1400354 C20.39,34.15 18.26,32.04 18.2699649,29.58 C18.28,27.08 20.38,24.96 22.86,24.96 C25.42,24.96 27.4200377,26.97 27.4200377,29.55 Z" id="Path"></path>
            </g>
            <g id="Group" transform="translate(92.000000, 1.000000)">
                <path d="M0.62,0.5 C17.79,0.5 34.78,0.5 52.01,0.5 C52.01,17.69 52.01,34.76 52.01,52.11 C34.94,52.11 17.9,52.11 0.62,52.11 C0.62,35.04 0.62,17.97 0.62,0.5 Z M4.97,47.56 C19.38,47.56 33.41,47.56 47.46,47.56 C47.46,33.23 47.46,19.18 47.46,5.15 C33.15,5.15 19.11,5.15 4.97,5.15 C4.97,19.41 4.97,33.39 4.97,47.56 Z" id="Shape"></path>
                <path d="M8.85,26.52 C8.76,16.98 16.35,9.23 25.87,9.14 C35.62,9.05 43.36,16.61 43.4203439,26.3 C43.48,35.7 35.68,43.58 26.25,43.6201549 C16.78,43.66 8.94,35.95 8.85,26.52 Z" id="Path"></path>
            </g>
            <g id="Group" transform="translate(178.000000, 6.000000)">
                <path d="M56.42,15.11 C55.75,11.59 55.18,8.52 54.54,5.18 C41.88,5.18 29.35,5.18 16.56,5.18 C16.56,3.63 16.56,2.39 16.56,0.81 C17.4,0.73 18.33,0.58 19.27,0.58 C31.28,0.56 43.29,0.61 55.29,0.52 C57.55,0.5 58.46,1.09 58.9,3.47 C61.47,17.3 64.26,31.09 66.96,44.9 C67.06,45.42 67.07,45.96 67.14,46.69 C66.06,46.74 65.1,46.84 64.14,46.84 C44.71,46.85 25.28,46.9 5.85,46.74 C4.03,46.73 1.37,45.88 0.65,44.57 C-0.06,43.28 0.76,40.67 1.65,39.04 C4.42,33.97 7.63,29.14 10.5,24.12 C14.02,17.94 19.13,14.94 26.31,15.08 C35.15,15.25 43.99,15.1 52.84,15.1 C53.89,15.11 54.95,15.11 56.42,15.11 Z M5.09,42 C24.28,42 42.84,42 61.78,42 C60.35,34.85 59.05,28.01 57.52,21.23 C57.37,20.56 55.81,19.79 54.89,19.78 C44.86,19.67 34.83,19.7 24.79,19.71 C21.3,19.71 18.2,20.94 16.3,23.83 C12.49,29.63 8.99,35.64 5.09,42 Z" id="Shape"></path>
                <path d="M35.02,36.18 C32.55,36.1 30.54,33.97 30.6,31.47 C30.66,28.91 32.7,26.98 35.25,27.05 C37.78,27.12 39.79,29.23 39.71,31.71 C39.64,34.16 37.44,36.25 35.02,36.18 Z" id="Path"></path>
            </g>
            <path d="M331.12,53.24 C313.83,53.24 296.79,53.24 279.51,53.24 C279.51,36.05 279.51,19.03 279.51,1.74 C296.66,1.74 313.78,1.74 331.12,1.74 C331.12,18.8 331.12,35.83 331.12,53.24 Z M326.62,11.6 C312.3,20.96 298.15,20.94 283.89,11.63 C283.89,24.21 283.89,36.32 283.89,48.58 C298.2,48.58 312.34,48.58 326.62,48.58 C326.62,36.21 326.62,24.11 326.62,11.6 Z M285.25,6.22 C296.96,17.27 316.21,15.69 324.86,6.22 C311.71,6.22 298.77,6.22 285.25,6.22 Z" id="Shape"></path>
        </g>
    </g>
</svg>