<svg width="1227" height="670" viewBox="0 0 1227 670" fill="none" xmlns="http://www.w3.org/2000/svg">
<g clip-path="url(#clip0)">
<path d="M157.104 296.229C71.5916 296.229 0 337.98 0 391.66C0 445.339 71.5916 487.09 157.104 487.09C244.605 487.09 314.207 445.339 314.207 391.66C314.207 337.98 244.605 296.229 157.104 296.229Z" fill="#FFD931"/>
<path d="M1071.89 483.113C1157.55 483.113 1227 442.167 1227 391.659C1227 341.15 1157.55 300.205 1071.89 300.205C986.219 300.205 916.771 341.15 916.771 391.659C916.771 442.167 986.219 483.113 1071.89 483.113Z" fill="#FFD931"/>
<path d="M614.493 397.626C658.243 397.626 694.039 361.84 694.039 318.101C694.039 274.362 658.243 238.575 614.493 238.575C570.742 238.575 534.946 274.362 534.946 318.101C534.946 361.84 570.742 397.626 614.493 397.626Z" fill="#FFD931"/>
<path d="M775.572 481.126H443.466C437.5 481.126 433.523 485.103 433.523 491.067C433.523 588.485 513.069 668.011 610.513 668.011C707.957 668.011 787.504 588.485 787.504 491.067C787.504 485.103 781.538 481.126 775.572 481.126Z" fill="#FFD931"/>
</g>
<defs>
<clipPath id="clip0">
<rect width="1227" height="670" fill="white"/>
</clipPath>
</defs>
</svg>
