<?xml version="1.0" encoding="UTF-8"?>
<svg width="651px" height="132px" viewBox="0 0 651 132" version="1.1" xmlns="http://www.w3.org/2000/svg" xmlns:xlink="http://www.w3.org/1999/xlink">
    <!-- Generator: Sketch 64 (93537) - https://sketch.com -->
    <title>Group 71</title>
    <desc>Created with Sketch.</desc>
    <defs>
        <polygon id="path-1" points="0 0.1435 86.1349792 0.1435 86.1349792 120.0765 0 120.0765"></polygon>
        <polygon id="path-3" points="0.246385167 0.6486 48.6 0.6486 48.6 72.1156 0.246385167 72.1156"></polygon>
    </defs>
    <g id="Page-1" stroke="none" stroke-width="1" fill="none" fill-rule="evenodd">
        <g id="Group-71">
            <path d="M59.3028,48.2492 C56.9448,39.1952 55.9818,36.9322 53.2528,36.9322 C48.2048,36.9322 38.7748,47.9832 32.3158,61.8302 C27.1168,73.1482 24.8658,82.7342 25.8478,86.4632 C29.6698,84.8652 48.1938,63.6952 59.3028,48.2492 M25.7348,123.7442 C6.0438,123.7442 -4.6892,105.2362 4.3108,71.8172 C15.1038,31.7392 44.8578,6.0412 63.8878,6.0412 C86.3038,6.0412 87.2038,32.8052 83.1288,48.2492 C76.2088,73.9472 58.8918,94.3192 44.4138,94.3192 C43.5868,94.3192 40.1658,92.5872 39.9298,91.9222 C39.2058,89.3922 39.7148,84.7312 40.2418,82.4682 C41.6908,76.4772 47.7368,66.6242 52.2718,59.3012 C43.5058,70.3522 31.6468,83.6662 23.2668,92.0552 C22.4348,92.9872 20.0618,92.5872 19.8748,92.0552 C17.4278,87.9282 20.8018,74.4792 26.7098,63.2952 C36.2548,45.0542 51.6308,33.7362 57.9178,33.7362 C61.3918,33.7362 62.3558,35.0682 64.6148,42.6582 C65.9998,41.1932 69.6768,37.0652 71.7658,34.5352 C72.9178,33.3372 72.6418,34.6682 72.6418,34.6682 C65.6138,43.8552 47.9898,72.7492 45.8208,82.3352 C45.4018,84.1992 46.1838,91.1232 47.4108,91.7892 C58.5788,91.7892 74.1008,75.0122 80.8778,49.8472 C85.0018,34.5352 83.8648,8.0392 62.3558,8.0392 C43.9068,8.0392 16.6378,32.8052 7.0638,68.3552 C-2.5462,104.0382 8.3698,120.9482 27.8928,120.9482 C36.9118,120.9482 49.1798,112.5602 56.2938,105.5032 L56.4708,105.7692 C48.3218,114.8232 36.4068,123.7442 25.7348,123.7442" id="Fill-1" fill="#FF4848"></path>
            <g id="Group-5" transform="translate(0.000000, 4.783000)">
                <mask id="mask-2" fill="white">
                    <use xlink:href="#path-1"></use>
                </mask>
                <g id="Clip-4"></g>
                <path d="M66.9109,2.5575 C71.5199,3.4475 75.2759,5.7615 78.1159,9.4685 C81.2329,13.5355 83.6209,20.4005 83.9219,28.8435 C83.9419,21.3955 82.4099,14.0455 78.5399,9.0215 C75.7039,5.3405 71.8029,3.1735 66.9109,2.5575 M53.2519,33.2645 C49.1779,33.2645 39.9929,43.2255 33.3269,57.5185 C28.5689,67.8755 26.6719,75.8085 26.7379,79.7705 C32.0369,75.5185 47.4989,57.8935 58.0909,43.2405 C55.8019,34.5205 54.9829,33.2645 53.2519,33.2645 M20.7729,86.5935 C21.2099,86.7655 22.2219,86.7685 22.4349,86.5295 C23.6009,85.3615 24.8259,84.1085 26.0919,82.7865 L25.0959,83.2035 L24.7699,81.9635 C23.6519,77.7215 26.2779,67.5205 31.3019,56.5815 C33.6629,51.5225 36.6619,46.3945 39.8159,42.0735 C35.4639,46.6785 31.1499,52.4335 27.6979,59.0295 C21.4899,70.7825 18.9529,83.1665 20.7729,86.5935 M40.9559,86.6575 C41.5129,87.1755 43.8169,88.3495 44.4479,88.4215 C45.4399,88.4215 46.4489,88.3195 47.4659,88.1205 L47.4109,88.1205 L47.1279,88.1205 L46.8799,87.9865 C44.7479,86.8295 44.3819,78.8695 44.7329,77.3075 C46.3619,70.1005 56.7179,51.8805 64.8669,39.2325 L64.0969,40.0455 L63.5459,38.1925 C61.2239,30.3905 60.4619,30.0695 57.9179,30.0695 C56.8749,30.0695 55.5539,30.4185 54.0369,31.0885 C57.2249,31.5665 58.2929,35.1655 60.3829,43.1855 L60.5149,43.6925 L60.2079,44.1175 C57.9119,47.3085 55.2089,50.8625 52.3379,54.4855 L53.2189,55.1055 C49.0589,61.8245 42.7699,71.9785 41.3259,77.9475 C40.8019,80.1975 40.3959,84.4115 40.9559,86.6575 M2.6629,81.2745 C1.2889,93.4215 3.1059,103.2695 8.0449,109.7135 C12.1209,115.0345 18.2389,117.8455 25.7349,117.8455 C26.9079,117.8455 29.1689,117.6845 32.2559,116.7445 C30.7459,117.0915 29.2819,117.2805 27.8929,117.2805 C19.5359,117.2805 12.7929,114.2455 8.3929,108.5035 C3.5849,102.2285 1.6659,92.9745 2.6629,81.2745 M25.7349,120.0765 C17.5189,120.0765 10.7889,116.9625 6.2739,111.0705 C-0.8731,101.7445 -1.9531,86.0015 3.2339,66.7435 C8.2169,48.2415 17.7979,31.0505 30.2129,18.3385 C41.3389,6.9455 53.9279,0.1435 63.8879,0.1435 C70.9409,0.1435 76.4639,2.6725 80.3069,7.6605 C87.2139,16.6265 87.2429,32.2475 84.2069,43.7515 C77.1259,70.0525 59.6459,90.6515 44.4139,90.6515 C43.4199,90.6515 39.3599,88.8695 38.8779,87.5125 C38.0099,84.4845 38.6929,79.4205 39.1559,77.4325 C39.8989,74.3625 41.7889,70.3475 44.0219,66.2455 C37.2609,74.1425 29.9089,82.2015 24.0559,88.0605 C23.2469,88.9695 21.7419,89.0735 20.6119,88.8495 C19.7259,88.6745 19.1309,88.3055 18.8789,87.7785 C16.0229,82.7845 20.1939,68.4595 25.7239,57.9915 C35.4979,39.3105 51.0629,27.8385 57.9179,27.8385 C61.9789,27.8385 63.3019,29.9145 65.1149,35.6855 C66.8229,33.7995 69.3299,30.9505 70.9059,29.0425 C71.2479,28.6825 72.1039,27.7755 73.0739,28.2835 C73.6599,28.5925 73.9079,29.2755 73.7349,30.1115 L73.6829,30.3615 L73.5269,30.5635 C66.2719,40.0495 49.0149,68.4925 46.9079,77.7985 C46.5549,79.3725 47.2279,84.5535 47.9029,85.8785 C58.1459,85.3895 73.0699,69.7675 79.8019,44.7745 C82.6269,34.2825 82.7499,19.1835 76.3449,10.8245 C73.0629,6.5425 68.3569,4.3715 62.3559,4.3715 C44.2899,4.3715 17.5829,28.8035 8.1419,63.8625 C2.8419,83.5365 3.5419,98.5045 10.1639,107.1465 C14.1259,112.3165 20.2569,115.0495 27.8929,115.0495 C36.0149,115.0495 47.9329,107.4425 55.5079,99.9285 L56.4739,98.9715 L57.8769,101.0905 L57.2989,101.7325 C53.4269,106.0355 39.7059,120.0765 25.7349,120.0765" id="Fill-3" fill="#FF4848" mask="url(#mask-2)"></path>
            </g>
            <path d="M82.3936,77.4094 L93.7616,35.2014 L89.2096,35.2014 C89.1256,35.2014 89.1516,34.8024 89.3886,34.5354 L105.2496,14.9634 C105.4876,14.6974 105.6886,14.5634 105.5446,15.0964 L102.0676,28.0114 C104.5476,28.0114 110.5066,28.0114 113.2706,27.8784 C116.0356,27.7444 116.1656,27.8784 116.0936,28.1444 C115.8776,28.9434 113.6726,31.6064 110.1026,35.3344 C109.4406,35.3344 102.7766,35.2014 99.9666,35.2014 L88.7066,77.0094 C86.1246,86.5964 86.6626,91.6554 90.1376,91.6554 C93.4476,91.6554 98.0016,86.7294 102.3046,77.8084 C102.8396,76.7434 103.7836,77.5414 103.1666,78.6074 C98.1866,87.2624 91.0946,95.7834 85.3856,95.7834 C79.8426,95.7834 78.9496,90.1914 82.3936,77.4094" id="Fill-6" fill="#FF4848"></path>
            <path d="M91.1886,34.0857 L95.2166,34.0857 L83.4696,77.6997 C81.1796,86.2037 80.8566,91.3697 82.4836,93.4947 C83.0966,94.2947 84.0196,94.6677 85.3856,94.6677 C86.7926,94.6677 88.4216,94.0037 90.1776,92.7707 C90.1636,92.7707 90.1506,92.7707 90.1376,92.7707 C88.9056,92.7707 87.8766,92.2787 87.1636,91.3477 C85.4336,89.0897 85.5856,84.3047 87.6306,76.7197 L99.1126,34.0857 L99.9666,34.0857 C101.8676,34.0857 105.4956,34.1457 107.8946,34.1857 C108.6216,34.1977 109.2276,34.2077 109.6306,34.2137 C112.0766,31.6447 113.5116,29.9577 114.2806,28.9537 C114.0146,28.9617 113.7006,28.9747 113.3236,28.9917 C110.5336,29.1267 104.6006,29.1267 102.0676,29.1267 L100.6136,29.1267 L103.2986,19.1467 L91.1886,34.0857 Z M85.3856,96.8987 C83.3266,96.8987 81.7546,96.2097 80.7126,94.8517 C78.5766,92.0627 78.7636,86.5947 81.3176,77.1187 L92.3066,36.3167 L88.4886,36.3167 L88.1626,35.6327 C87.8896,35.0237 88.1516,34.2477 88.5546,33.7947 L104.3826,14.2607 C105.1376,13.4167 105.7746,13.5827 106.0946,13.7547 C106.4086,13.9257 106.8966,14.3647 106.6216,15.3857 L103.5226,26.8957 C106.4066,26.8927 110.9216,26.8747 113.2176,26.7637 C115.7636,26.6397 116.4596,26.6767 116.9476,27.2807 C117.0966,27.4657 117.3246,27.8627 117.1706,28.4347 C116.8856,29.4837 114.7786,32.0637 110.9066,36.1057 L110.5776,36.4497 L110.1026,36.4497 C109.8836,36.4497 109.0206,36.4357 107.8576,36.4157 C105.7896,36.3817 102.8086,36.3327 100.8206,36.3197 L89.7836,77.2997 C87.3016,86.5157 88.3636,89.2447 88.9346,89.9907 C89.2246,90.3707 89.5956,90.5407 90.1376,90.5407 C92.3456,90.5407 96.5946,87.0797 101.2996,77.3247 C101.6526,76.6227 102.2116,76.2157 102.8446,76.1907 C103.4436,76.1667 103.9226,76.4567 104.2226,76.9547 C104.6026,77.5857 104.5676,78.4117 104.1306,79.1667 C101.7396,83.3247 93.3116,96.8987 85.3856,96.8987 L85.3856,96.8987 Z" id="Fill-8" fill="#FF4848"></path>
            <path d="M115.9874,47.5842 C125.3364,47.5842 131.0204,47.0512 136.3984,47.0512 C137.5554,47.0512 139.6754,46.2522 140.0314,45.8532 C140.7774,44.9202 141.4564,43.3232 141.9234,41.5922 C143.2864,36.5332 142.0414,29.4762 135.6704,29.4762 C128.5584,29.4762 121.3184,35.4672 115.9874,47.5842 M105.7374,63.8282 C111.1164,43.8552 127.3614,26.5472 138.7774,26.5472 C150.6904,26.5472 150.4754,38.3972 148.3304,44.5212 C147.5574,46.7852 146.3094,48.6492 143.7454,48.6492 L115.5354,48.6492 C114.2134,51.7122 113.0334,55.1732 112.0304,58.9012 C107.6184,75.2792 112.5324,88.0602 122.8734,88.0602 C128.0024,88.0602 134.6904,84.7312 141.2584,73.5472 C141.8754,72.4822 142.1584,73.2812 141.8504,73.8142 C133.5324,87.7942 124.1834,95.7832 116.4904,95.7832 C104.7424,95.7832 100.7894,82.2022 105.7374,63.8282" id="Fill-10" fill="#FF4848"></path>
            <path d="M135.6709,30.5915 C129.0239,30.5915 122.5409,36.3495 117.7269,46.4625 C122.1909,46.4305 125.7609,46.2815 128.9539,46.1495 C131.6909,46.0345 134.0549,45.9355 136.3979,45.9355 C137.2099,45.9355 138.8009,45.3635 139.2179,45.0815 C139.8109,44.3005 140.4159,42.8995 140.8469,41.3015 C141.5859,38.5595 141.5469,34.7695 139.7979,32.4855 C138.8339,31.2285 137.4469,30.5915 135.6709,30.5915 M139.2029,47.5335 L143.7459,47.5335 C145.4119,47.5335 146.4679,46.5255 147.2739,44.1615 C148.6409,40.2615 148.9879,34.4955 146.5299,31.0295 C144.9449,28.7955 142.3369,27.6625 138.7769,27.6625 C137.4859,27.6625 136.1009,27.9155 134.6529,28.3985 C134.9929,28.3735 135.3309,28.3605 135.6709,28.3605 C138.1419,28.3605 140.1799,29.3185 141.5689,31.1295 C143.9329,34.2135 143.8169,38.8495 142.9999,41.8825 C142.6899,43.0345 142.0039,45.1725 140.9019,46.5495 C140.5919,46.8985 139.9419,47.2485 139.2029,47.5335 M116.7649,43.4125 C112.5229,49.2465 108.9069,56.3535 106.8139,64.1175 C103.6619,75.8245 104.1399,85.5225 108.1279,90.7245 C110.1339,93.3415 112.9459,94.6685 116.4909,94.6685 C120.7709,94.6685 125.6789,91.9135 130.6139,86.9285 C127.6829,88.6465 125.0299,89.1755 122.8739,89.1755 C118.9819,89.1755 115.6509,87.5165 113.2469,84.3765 C108.9689,78.7935 108.1109,69.1625 110.9549,58.6115 C111.9239,55.0015 113.0499,51.6695 114.3009,48.6995 L114.2789,48.6995 L114.9659,47.1345 C115.5389,45.8325 116.1399,44.5915 116.7649,43.4125 M116.4909,96.8985 C112.2769,96.8985 108.7719,95.2325 106.3569,92.0815 C101.9449,86.3235 101.3259,75.9205 104.6619,63.5375 C110.0329,43.5935 126.2919,25.4315 138.7769,25.4315 C143.1009,25.4315 146.3229,26.8815 148.3509,29.7395 C151.2819,33.8735 150.9809,40.3275 149.3829,44.8905 C148.9729,46.0895 147.7189,49.7645 143.7459,49.7645 L116.2739,49.7645 C115.0949,52.5915 114.0309,55.7585 113.1069,59.1915 C110.4459,69.0765 111.1579,77.9845 115.0179,83.0195 C116.9849,85.5875 119.7019,86.9455 122.8739,86.9455 C127.0819,86.9455 133.5199,84.5225 140.2959,72.9825 C141.1719,71.4675 142.2159,71.9605 142.4139,72.0765 C143.2149,72.5405 143.2459,73.6305 142.8139,74.3725 C134.2969,88.6925 124.7029,96.8985 116.4909,96.8985" id="Fill-12" fill="#FF4848"></path>
            <path d="M153.3578,90.0578 C159.0668,90.0578 168.1568,77.8088 170.0858,73.4148 C170.6328,71.6838 173.1738,64.0948 176.1138,53.1768 C176.3638,52.2448 176.6158,51.3118 176.8678,50.3798 L168.8298,55.0398 C154.4438,63.2958 150.4718,67.2898 147.8198,77.1418 C145.8838,84.3328 148.3118,90.0578 153.3578,90.0578 M140.9868,81.0038 C143.3888,72.0828 151.1348,63.2958 169.0208,53.7088 L177.1538,49.3148 C181.2228,32.6718 179.9018,27.7448 174.0278,27.7448 C171.6288,27.7448 169.6048,28.8098 167.7308,30.5408 C163.9878,34.0028 161.4068,39.5958 159.3768,42.5238 C158.1648,44.2548 157.2408,44.9208 155.0068,44.9208 C153.0218,44.9208 152.0228,43.7228 152.5238,41.8588 C152.9558,40.2608 154.4618,37.7308 157.1028,35.6008 C161.3458,32.1388 169.8008,26.5468 175.6758,26.5468 C183.7828,26.5468 187.7448,33.3368 183.0468,50.7798 C180.6438,59.7008 175.9308,74.7458 174.5328,79.9388 C172.4888,87.5278 172.0618,91.2558 173.7998,91.2558 C175.2918,91.2558 178.6138,86.5958 180.2398,83.9328 C180.9418,82.8688 181.6468,83.9328 180.9468,84.9978 C178.7978,88.0598 171.5878,95.7838 168.3628,95.7838 C165.2178,95.7838 164.5788,92.3218 166.1938,86.3298 C167.0548,83.1338 168.3298,79.0068 169.2478,76.2108 C165.9348,82.0688 154.5938,95.9168 147.7278,95.9168 C141.0268,95.9168 138.8008,89.1258 140.9868,81.0038" id="Fill-14" fill="#FF4848"></path>
            <path d="M165.5764,31.1574 C162.5254,32.8864 159.6944,34.9264 157.8084,36.4654 C155.4464,38.3694 153.9954,40.6914 153.6004,42.1494 C153.5174,42.4554 153.4184,43.0214 153.6824,43.3654 C153.8994,43.6494 154.3694,43.8054 155.0074,43.8054 C156.8274,43.8054 157.4374,43.3494 158.4644,41.8844 C159.0394,41.0534 159.6914,39.9464 160.3834,38.7744 C161.7924,36.3864 163.4844,33.5174 165.5764,31.1574 L165.5764,31.1574 Z M175.0874,52.7014 L169.3894,56.0054 C155.0664,64.2234 151.4294,68.0284 148.8964,77.4324 C147.8194,81.4294 148.1434,85.0754 149.7594,87.1844 C150.6544,88.3514 151.8644,88.9424 153.3574,88.9424 C158.1774,88.9424 167.0224,77.5554 169.0424,73.0174 L169.3274,72.1334 C170.1884,69.4684 172.4774,62.3904 175.0374,52.8864 L175.0874,52.7014 Z M169.7824,76.3264 L170.3084,76.5584 C169.4704,79.1064 168.1734,83.2694 167.2694,86.6204 C165.8644,91.8404 166.6254,93.5964 167.0184,94.1094 C167.2014,94.3494 167.5414,94.6684 168.3624,94.6684 C169.3234,94.6684 170.9674,93.5994 172.7564,92.0924 C172.5454,91.9664 172.3574,91.7984 172.2004,91.5934 C171.2814,90.3944 171.1914,88.0544 173.4564,79.6484 C174.0664,77.3834 175.2824,73.3224 176.6914,68.6194 C178.5294,62.4844 180.6124,55.5304 181.9704,50.4894 C184.5944,40.7424 184.5874,33.7694 181.9484,30.3244 C181.0704,29.1784 179.8724,28.3974 178.3714,27.9914 C178.6194,28.2054 178.8474,28.4464 179.0564,28.7114 C181.2754,31.5394 181.1544,37.2014 178.5954,48.0894 L178.6494,48.0574 L177.1924,53.4654 C174.6174,63.0244 172.3154,70.1404 171.4484,72.8204 L171.1074,73.8634 C170.8224,74.5114 170.3684,75.3574 169.7824,76.3264 L169.7824,76.3264 Z M142.0634,81.2944 C140.7924,86.0204 141.1174,90.2584 142.9354,92.6304 C144.0394,94.0704 145.6524,94.8014 147.7274,94.8014 C149.8714,94.8014 152.6614,93.1624 155.5294,90.7594 C154.7814,91.0264 154.0544,91.1734 153.3574,91.1734 C151.1644,91.1734 149.3094,90.2634 147.9884,88.5414 C145.9224,85.8454 145.4684,81.5844 146.7434,76.8524 C147.7264,73.2004 148.8854,70.3134 150.6774,67.7074 C146.1554,72.0874 143.3374,76.5644 142.0634,81.2944 Z M147.7274,97.0324 C144.9614,97.0324 142.6914,95.9794 141.1654,93.9874 C138.8944,91.0254 138.4374,86.1874 139.9104,80.7144 L139.9104,80.7144 C142.6304,70.6144 151.7114,61.7204 168.4934,52.7254 L176.1874,48.5704 C178.6934,38.1884 179.0454,32.3104 177.3004,30.0894 C176.6434,29.2504 175.6034,28.8604 174.0274,28.8604 C172.0954,28.8604 170.3334,29.6554 168.4874,31.3604 C165.9754,33.6834 163.9394,37.1354 162.3054,39.9074 C161.5924,41.1154 160.9184,42.2574 160.2934,43.1584 C158.9854,45.0264 157.7584,46.0354 155.0074,46.0354 C153.6604,46.0354 152.5624,45.5694 151.9124,44.7224 C151.4674,44.1434 151.0264,43.1264 151.4474,41.5694 C151.8994,39.8934 153.4694,37.0984 156.4034,34.7324 C157.5664,33.7844 168.0234,25.4314 175.6754,25.4314 C179.2144,25.4314 181.9204,26.6214 183.7184,28.9684 C186.8414,33.0414 186.9774,40.4774 184.1224,51.0704 C182.7584,56.1404 180.6694,63.1104 178.8274,69.2594 C177.4244,73.9464 176.2114,77.9934 175.6094,80.2284 C173.6564,87.4804 173.7094,89.5254 173.9064,90.0994 C174.7454,89.6924 177.1524,86.8484 179.2884,83.3514 C180.0124,82.2544 180.9944,82.2084 181.6134,82.6144 C182.4884,83.1894 182.6054,84.5054 181.8804,85.6114 C180.2504,87.9304 172.4974,96.8984 168.3624,96.8984 C166.6954,96.8984 165.7494,96.1194 165.2474,95.4664 C163.9174,93.7304 163.8754,90.6474 165.1174,86.0394 C165.3904,85.0204 165.7034,83.9264 166.0264,82.8254 C161.0244,89.2204 153.2954,97.0324 147.7274,97.0324 L147.7274,97.0324 Z" id="Fill-16" fill="#FF4848"></path>
            <path d="M185.8054,77.4094 L197.1714,35.2014 L192.6204,35.2014 C192.5394,35.2014 192.5634,34.8024 192.8004,34.5354 L208.6594,14.9634 C208.8984,14.6974 209.1004,14.5634 208.9564,15.0964 L205.4774,28.0114 C207.9614,28.0114 213.9164,28.0114 216.6824,27.8784 C219.4484,27.7444 219.5774,27.8784 219.5054,28.1444 C219.2904,28.9434 217.0864,31.6064 213.5154,35.3344 C212.8544,35.3344 206.1904,35.2014 203.3764,35.2014 L192.1164,77.0094 C189.5364,86.5964 190.0744,91.6554 193.5494,91.6554 C196.8594,91.6554 201.4114,86.7294 205.7164,77.8084 C206.2534,76.7434 207.1974,77.5414 206.5784,78.6074 C201.5984,87.2624 194.5044,95.7834 188.7954,95.7834 C183.2554,95.7834 182.3634,90.1914 185.8054,77.4094" id="Fill-18" fill="#FF4848"></path>
            <path d="M194.6003,34.0862 L198.6263,34.0862 L186.8813,77.6992 C184.5913,86.2042 184.2693,91.3712 185.8973,93.4962 C186.5103,94.2952 187.4313,94.6682 188.7953,94.6682 C190.2023,94.6682 191.8323,94.0032 193.5883,92.7702 C192.3023,92.7952 191.2953,92.2892 190.5753,91.3472 C188.8453,89.0912 188.9973,84.3062 191.0403,76.7202 L202.5223,34.0862 L203.3763,34.0862 C205.2813,34.0862 208.9093,34.1462 211.3093,34.1862 C212.0353,34.1972 212.6413,34.2072 213.0433,34.2132 C215.4903,31.6432 216.9253,29.9572 217.6923,28.9532 C217.4283,28.9612 217.1123,28.9742 216.7353,28.9922 C213.9443,29.1262 208.0113,29.1262 205.4773,29.1262 L204.0233,29.1262 L206.7103,19.1452 L194.6003,34.0862 Z M188.7953,96.8982 C186.7383,96.8982 185.1683,96.2102 184.1263,94.8522 C181.9903,92.0642 182.1753,86.5962 184.7293,77.1192 L195.7173,36.3172 L191.8983,36.3172 L191.5753,35.6342 C191.2993,35.0242 191.5643,34.2472 191.9663,33.7942 L207.7923,14.2612 C208.5493,13.4172 209.1883,13.5822 209.5043,13.7542 C209.8203,13.9262 210.3083,14.3652 210.0333,15.3862 L206.9323,26.8952 C209.8163,26.8932 214.3313,26.8742 216.6293,26.7642 C219.1773,26.6392 219.8733,26.6762 220.3603,27.2802 C220.5083,27.4652 220.7363,27.8622 220.5823,28.4342 C220.3013,29.4812 218.1943,32.0612 214.3203,36.1052 L213.9913,36.4492 L213.5163,36.4492 C213.2973,36.4492 212.4353,36.4352 211.2733,36.4162 C209.2033,36.3822 206.2203,36.3322 204.2303,36.3202 L193.1933,77.3002 C190.7133,86.5162 191.7753,89.2452 192.3463,89.9912 C192.6363,90.3712 193.0073,90.5402 193.5493,90.5402 C195.7553,90.5402 200.0043,87.0792 204.7123,77.3242 C205.0663,76.6222 205.6263,76.2142 206.2603,76.1912 C206.8023,76.1662 207.3353,76.4572 207.6363,76.9572 C208.0163,77.5872 207.9793,78.4142 207.5423,79.1672 C205.1513,83.3242 196.7233,96.8982 188.7953,96.8982 L188.7953,96.8982 Z" id="Fill-20" fill="#FF4848"></path>
            <path d="M201.6389,93.2531 C206.3559,93.2531 207.2229,91.2561 210.3089,79.8061 L219.8819,44.2551 C222.6079,34.1361 221.5559,33.7361 217.0239,35.2011 C216.2929,35.4671 216.3299,34.4021 217.0649,34.1361 C221.5939,32.6711 225.2549,30.1411 229.4489,26.5471 C229.7679,26.2801 230.8669,26.8131 230.6869,27.4791 L216.5939,79.8061 C213.5119,91.2561 213.3029,93.2531 217.9349,93.2531 C218.5999,93.2531 218.2769,94.4521 217.6139,94.4521 C215.2149,94.4521 210.9849,94.1851 209.7429,94.1851 C208.5029,94.1851 203.7159,94.4521 201.3169,94.4521 C200.6539,94.4521 200.9779,93.2531 201.6389,93.2531 M228.1089,8.1721 C229.1509,4.3111 231.9139,1.1151 234.3119,1.1151 C236.7109,1.1151 237.8359,4.3111 236.7959,8.1721 C235.7559,12.0331 232.9459,15.0961 230.5469,15.0961 C228.1479,15.0961 227.0699,12.0331 228.1089,8.1721" id="Fill-22" fill="#FF4848"></path>
            <path d="M229.1858,8.4626 C228.6288,10.5336 228.7398,12.4846 229.4668,13.4336 C229.7518,13.8066 230.0948,13.9806 230.5468,13.9806 C232.2168,13.9806 234.7518,11.4766 235.7198,7.8826 C236.2838,5.7876 236.1528,3.7896 235.3888,2.7936 C235.1008,2.4146 234.7478,2.2306 234.3128,2.2306 C232.6828,2.2306 230.1778,4.7906 229.1858,8.4626 M230.5468,16.2116 C229.4098,16.2116 228.3978,15.7066 227.6958,14.7906 C226.5258,13.2646 226.2778,10.6826 227.0328,7.8826 C228.2248,3.4626 231.4228,0.0006 234.3128,0.0006 C235.4388,0.0006 236.4508,0.5106 237.1598,1.4356 C238.3668,3.0106 238.6328,5.6376 237.8718,8.4626 C236.7018,12.8076 233.4838,16.2116 230.5468,16.2116 M209.7428,93.0696 C210.2868,93.0696 211.3448,93.1176 212.5678,93.1716 C213.0748,93.1946 213.6208,93.2196 214.1738,93.2426 C214.1018,93.1676 214.0338,93.0876 213.9698,93.0036 C212.5608,91.1666 213.2748,87.8456 215.5178,79.5156 L229.3718,28.0756 C226.9058,30.1436 224.2078,32.1696 221.0598,33.7136 C221.2668,33.8136 221.4598,33.9456 221.6388,34.1146 C222.9368,35.3526 222.7788,37.7896 220.9588,44.5456 L211.3848,80.0956 C209.3458,87.6666 208.2088,91.4966 205.9808,93.2016 C206.2308,93.1916 206.4768,93.1816 206.7138,93.1716 C208.0608,93.1166 209.2158,93.0696 209.7428,93.0696 M217.6138,95.5666 C216.1938,95.5666 214.1278,95.4746 212.4688,95.4006 C211.2768,95.3476 210.2538,95.3006 209.7428,95.3006 C209.2328,95.3006 208.1098,95.3476 206.8058,95.4006 C204.9928,95.4746 202.7358,95.5666 201.3178,95.5666 C200.8618,95.5666 200.4578,95.3816 200.1808,95.0456 C199.9568,94.7756 199.8368,94.4326 199.8368,94.0556 C199.8368,93.1296 200.5608,92.1376 201.6388,92.1376 C205.3038,92.1376 206.0398,91.3586 209.2328,79.5156 L218.8058,43.9646 C220.5708,37.4066 220.3748,35.9916 220.1008,35.7316 C219.9708,35.6416 219.4378,35.5936 217.3678,36.2626 C216.8438,36.4526 216.2968,36.3706 215.8908,36.0306 C215.4868,35.6916 215.3048,35.1506 215.4058,34.5856 C215.5268,33.9036 216.0178,33.3296 216.6848,33.0876 C221.2488,31.6106 224.7938,29.0676 228.7228,25.6996 C229.2818,25.2336 230.1208,25.2516 230.8688,25.7316 C231.6158,26.2116 231.9688,27.0116 231.7628,27.7696 L217.6708,80.0956 C216.2928,85.2156 214.8678,90.5096 215.7398,91.6466 C215.9958,91.9816 216.6938,92.1376 217.9348,92.1376 C218.3908,92.1376 218.7948,92.3226 219.0738,92.6576 C219.2978,92.9296 219.4158,93.2726 219.4158,93.6496 C219.4158,94.5756 218.6918,95.5666 217.6138,95.5666" id="Fill-24" fill="#FF4848"></path>
            <path d="M218.8463,93.2531 C222.5713,93.2531 222.8433,92.8541 226.6803,78.6071 L235.9323,44.2551 C236.9723,40.3941 236.0023,36.9321 234.8523,34.1361 C234.7113,33.7361 234.8653,33.4701 235.0653,33.3371 C236.8073,32.4051 240.5943,30.0091 242.6113,27.7451 C242.8503,27.4791 242.9303,27.4791 243.0723,27.8781 C244.0003,30.2741 244.2313,35.8671 242.7953,41.1931 C249.3233,32.0061 255.0963,26.5471 261.4663,26.5471 C266.4293,26.5471 270.9943,29.8761 270.0243,41.4591 C276.7543,32.1381 282.6453,26.5471 289.0153,26.5471 C296.2113,26.5471 301.1803,32.6711 295.5503,53.5761 L286.3353,87.7951 C284.9723,92.8541 284.9943,93.3871 289.0833,93.2531 C289.7443,93.2531 289.4233,94.4521 288.7613,94.4521 C288.1003,94.4521 282.5453,94.1851 281.2233,94.1851 C279.9813,94.1851 275.0293,94.4521 272.6303,94.4521 C271.9673,94.4521 272.2903,93.2531 272.9523,93.2531 C278.5763,93.2531 278.7303,92.9871 282.5333,78.8741 L289.7043,52.2441 C294.1513,35.7331 290.2553,30.5411 285.2073,30.5411 C279.0873,30.5411 274.8513,36.1331 269.9613,42.9231 L257.8773,87.7951 C256.5143,92.8541 257.2803,93.3871 261.3693,93.2531 C262.0303,93.2531 261.7083,94.4521 261.0473,94.4521 C260.3863,94.4521 254.5013,94.1851 253.1763,94.1851 C251.9363,94.1851 247.2323,94.4521 244.8323,94.4521 C244.1703,94.4521 244.4923,93.2531 245.1533,93.2531 C250.2853,93.2531 250.2743,92.9871 254.0753,78.8741 L261.2473,52.2441 C265.6933,35.7331 262.7063,30.5411 257.6583,30.5411 C252.4493,30.5411 248.5493,34.2691 242.4843,42.6581 L228.8573,93.2531 L233.7393,93.2531 C234.4003,93.2531 234.0773,94.4521 233.4163,94.4521 C232.7543,94.4521 228.0263,94.1851 226.7043,94.1851 C225.4623,94.1851 220.9233,94.4521 218.5253,94.4521 C217.8633,94.4521 218.1853,93.2531 218.8463,93.2531" id="Fill-26" fill="#FF4848"></path>
            <path d="M253.1766,93.07 C253.7716,93.07 255.1936,93.119 256.7146,93.177 C255.8256,92.006 256.0736,90.205 256.8006,87.505 L268.7716,43.054 L268.9126,41.366 C269.3776,35.82 268.5856,31.892 266.5596,29.69 C265.3216,28.344 263.6076,27.662 261.4666,27.662 C259.3376,27.662 257.2216,28.323 255.0046,29.736 C255.8546,29.529 256.7346,29.425 257.6586,29.425 C259.7596,29.425 261.4886,30.232 262.6566,31.756 C265.2776,35.175 265.1696,41.971 262.3236,52.534 L254.9746,79.823 C252.7766,87.986 251.8046,91.598 250.0596,93.177 C250.0996,93.175 250.1406,93.173 250.1786,93.172 C251.5086,93.117 252.6496,93.07 253.1766,93.07 M281.2236,93.07 C281.8386,93.07 283.2766,93.123 284.7826,93.184 C284.0446,92.013 284.5106,90.279 285.2586,87.505 L294.4736,53.285 C298.3446,38.91 296.7826,32.794 294.7896,30.194 C293.5026,28.513 291.5586,27.662 289.0156,27.662 C286.9046,27.662 284.7846,28.332 282.5476,29.761 C283.3976,29.543 284.2816,29.425 285.2076,29.425 C287.4686,29.425 289.3526,30.327 290.6606,32.033 C293.4306,35.648 293.4716,42.546 290.7806,52.534 L283.6096,79.164 C281.2916,87.767 280.2776,91.535 278.3336,93.164 C279.6256,93.112 280.7216,93.07 281.2236,93.07 M236.0316,34.078 C237.0306,36.582 238.1426,40.339 237.0086,44.546 L227.7566,78.898 C225.3766,87.741 224.3406,91.584 222.7076,93.216 C223.0696,93.201 223.4256,93.186 223.7656,93.172 C225.0616,93.117 226.1766,93.07 226.7046,93.07 C226.9556,93.07 227.3156,93.079 227.7456,93.093 L227.7806,92.963 L240.2346,46.722 L240.0966,46.917 L241.7186,40.903 C242.8316,36.774 242.9126,32.232 242.3836,29.556 C240.2766,31.503 237.4646,33.266 236.0316,34.078 M288.7616,95.567 C288.4826,95.567 287.3506,95.521 286.0246,95.467 C284.2206,95.393 281.9746,95.301 281.2236,95.301 C280.7106,95.301 279.5586,95.347 278.2186,95.401 C276.3616,95.475 274.0486,95.567 272.6306,95.567 C272.1746,95.567 271.7706,95.382 271.4936,95.046 C271.2696,94.775 271.1496,94.433 271.1496,94.056 C271.1496,93.13 271.8736,92.138 272.9516,92.138 C277.8046,92.138 277.8046,92.138 281.4566,78.583 L288.6276,51.954 C291.7406,40.391 290.4896,35.477 288.8906,33.39 C288.0086,32.239 286.7706,31.656 285.2076,31.656 C279.8916,31.656 276.1096,36.304 270.9846,43.41 L258.9536,88.085 C258.2356,90.755 258.3066,91.598 258.4946,91.835 C258.8026,92.222 260.7116,92.159 261.3326,92.138 L261.3336,92.138 C261.8266,92.138 262.2306,92.324 262.5076,92.66 C262.7296,92.931 262.8476,93.273 262.8476,93.649 C262.8476,94.575 262.1236,95.567 261.0476,95.567 C260.7706,95.567 259.5816,95.521 258.1916,95.467 C256.2916,95.393 253.9316,95.301 253.1766,95.301 C252.6656,95.301 251.5606,95.347 250.2726,95.401 C248.4816,95.475 246.2516,95.567 244.8316,95.567 C244.3746,95.567 243.9706,95.382 243.6926,95.045 C243.4706,94.774 243.3536,94.432 243.3536,94.056 C243.3536,93.13 244.0766,92.138 245.1536,92.138 C249.3486,92.138 249.3486,92.138 252.8206,79.244 L260.1716,51.954 C263.4276,39.859 262.3576,35.032 260.8856,33.113 C260.1346,32.132 259.0806,31.656 257.6586,31.656 C253.2626,31.656 249.8116,34.453 243.5076,43.146 L230.3116,92.138 L233.7396,92.138 C234.1946,92.138 234.5986,92.323 234.8766,92.659 C235.1006,92.93 235.2176,93.272 235.2176,93.648 C235.2176,94.575 234.4946,95.567 233.4156,95.567 C233.1366,95.567 232.1426,95.521 230.9806,95.466 C229.4076,95.393 227.4516,95.301 226.7046,95.301 C226.1936,95.301 225.1136,95.347 223.8586,95.401 C222.1136,95.475 219.9426,95.567 218.5246,95.567 C218.0676,95.567 217.6636,95.382 217.3856,95.045 C217.1636,94.774 217.0466,94.432 217.0466,94.056 C217.0466,93.13 217.7696,92.138 218.8466,92.138 C221.7096,92.138 221.8806,92.138 225.6036,78.318 L234.8556,43.965 C235.8496,40.275 234.8246,37.001 233.8206,34.56 C233.5096,33.688 233.7646,32.863 234.4486,32.408 L234.5406,32.354 C236.3656,31.376 239.9456,29.06 241.7796,27.003 C241.9316,26.834 242.3996,26.328 243.0906,26.467 C243.8056,26.609 244.0366,27.26 244.1226,27.506 C244.8356,29.346 245.1716,32.823 244.7586,36.697 C250.9526,28.846 256.0806,25.431 261.4666,25.431 C264.2196,25.431 266.5486,26.382 268.2016,28.18 C270.1586,30.307 271.1826,33.579 271.2636,37.933 C278.0196,29.207 283.4296,25.431 289.0156,25.431 C292.2906,25.431 294.8286,26.577 296.5606,28.837 C299.9036,33.198 299.9256,41.619 296.6266,53.866 L287.4116,88.085 C287.0366,89.478 286.4696,91.584 286.6766,92.004 C286.7906,92.083 287.3256,92.197 289.0466,92.138 L289.0476,92.138 C289.5406,92.138 289.9446,92.324 290.2216,92.66 C290.4436,92.931 290.5616,93.273 290.5616,93.649 C290.5616,94.575 289.8376,95.567 288.7616,95.567" id="Fill-28" fill="#FF4848"></path>
            <path d="M308.9135,47.5842 C318.2625,47.5842 323.9465,47.0512 329.3245,47.0512 C330.4815,47.0512 332.6015,46.2522 332.9575,45.8532 C333.7035,44.9202 334.3825,43.3232 334.8495,41.5922 C336.2125,36.5332 334.9675,29.4762 328.5965,29.4762 C321.4845,29.4762 314.2435,35.4672 308.9135,47.5842 M298.6635,63.8282 C304.0425,43.8552 320.2875,26.5472 331.7035,26.5472 C343.6165,26.5472 343.4015,38.3972 341.2565,44.5212 C340.4835,46.7852 339.2355,48.6492 336.6715,48.6492 L308.4615,48.6492 C307.1395,51.7122 305.9595,55.1732 304.9565,58.9012 C300.5445,75.2792 305.9545,88.0602 317.1225,88.0602 C327.2155,88.0602 336.0275,78.0742 344.8455,62.2302 C345.6865,60.6322 346.1585,61.0312 345.3525,62.4962 C339.8605,72.7492 332.6785,83.1342 325.0005,89.5252 C320.3205,93.3872 315.5375,95.7832 310.8235,95.7832 C298.1645,95.7832 293.7155,82.2022 298.6635,63.8282" id="Fill-30" fill="#FF4848"></path>
            <path d="M328.5969,30.5915 C321.9499,30.5915 315.4669,36.3495 310.6529,46.4625 C315.1169,46.4305 318.6869,46.2815 321.8799,46.1495 C324.6169,46.0345 326.9809,45.9355 329.3239,45.9355 C330.1359,45.9355 331.7269,45.3635 332.1439,45.0815 C332.7369,44.3005 333.3419,42.8995 333.7729,41.3015 C334.5119,38.5595 334.4729,34.7695 332.7239,32.4855 C331.7599,31.2285 330.3729,30.5915 328.5969,30.5915 M332.1289,47.5335 L336.6719,47.5335 C338.3379,47.5335 339.3939,46.5255 340.1999,44.1615 C341.5669,40.2615 341.9139,34.4955 339.4559,31.0295 C337.8709,28.7955 335.2629,27.6625 331.7029,27.6625 C330.4119,27.6625 329.0269,27.9155 327.5789,28.3985 C327.9189,28.3735 328.2569,28.3605 328.5969,28.3605 C331.0679,28.3605 333.1059,29.3185 334.4949,31.1295 C336.8589,34.2135 336.7429,38.8495 335.9259,41.8825 C335.6159,43.0345 334.9299,45.1725 333.8279,46.5495 C333.5179,46.8985 332.8679,47.2485 332.1289,47.5335 M309.6909,43.4125 C305.4489,49.2465 301.8329,56.3535 299.7399,64.1175 C296.6889,75.4515 297.2569,84.9785 301.2999,90.2555 C303.5449,93.1835 306.7479,94.6685 310.8239,94.6685 C314.9309,94.6685 319.4619,92.6485 324.2909,88.6655 C325.2609,87.8575 326.2419,86.9675 327.2249,86.0025 C323.8979,88.1475 320.5629,89.1755 317.1219,89.1755 C312.7319,89.1755 309.0129,87.3505 306.3679,83.8975 C302.0589,78.2755 301.1289,68.8225 303.8809,58.6115 C304.8499,55.0015 305.9759,51.6695 307.2269,48.6995 L307.2049,48.6995 L307.8919,47.1345 C308.4649,45.8325 309.0659,44.5915 309.6909,43.4125 M310.8239,96.8985 C306.0849,96.8985 302.1799,95.0705 299.5289,91.6125 C295.0599,85.7805 294.3529,75.5475 297.5879,63.5375 C302.9589,43.5935 319.2179,25.4315 331.7029,25.4315 C336.0269,25.4315 339.2489,26.8815 341.2769,29.7395 C344.2079,33.8735 343.9069,40.3275 342.3089,44.8905 C341.8989,46.0895 340.6449,49.7645 336.6719,49.7645 L309.1999,49.7645 C308.0209,52.5915 306.9569,55.7585 306.0329,59.1915 C303.4619,68.7375 304.2499,77.4655 308.1379,82.5415 C310.3459,85.4225 313.4519,86.9455 317.1219,86.9455 C325.7809,86.9455 334.2799,78.9195 343.8699,61.6875 C344.4469,60.5935 344.9759,60.1085 345.6299,60.0875 L346.2779,60.0655 L346.6929,60.6585 C347.0329,61.2125 346.9179,61.9675 346.3299,63.0335 C339.9799,74.8865 332.6559,84.6035 325.7129,90.3835 C320.4729,94.7075 315.4639,96.8985 310.8239,96.8985" id="Fill-32" fill="#FF4848"></path>
            <path d="M343.4937,79.5388 C346.0577,79.5388 347.3217,83.1338 346.2107,87.2618 C345.0277,91.6558 341.8977,94.9848 339.3337,94.9848 C336.6037,94.9848 335.4317,91.6558 336.6147,87.2618 C337.7257,83.1338 340.7647,79.5388 343.4937,79.5388" id="Fill-34" fill="#FF4848"></path>
            <path d="M343.4937,80.6545 C341.3927,80.6545 338.6817,83.8775 337.6917,87.5515 C337.0427,89.9615 337.1527,92.1285 337.9797,93.2055 C338.3217,93.6515 338.7637,93.8685 339.3337,93.8685 C341.1977,93.8685 344.0397,91.0365 345.1337,86.9725 C345.7507,84.6775 345.5807,82.4525 344.7007,81.3035 C344.3657,80.8665 343.9717,80.6545 343.4937,80.6545 M339.3337,96.0995 C338.0607,96.0995 336.9787,95.5685 336.2087,94.5625 C334.9317,92.8965 334.6877,90.1305 335.5387,86.9725 C336.6697,82.7695 339.9537,78.4235 343.4937,78.4235 C344.6597,78.4235 345.7177,78.9645 346.4717,79.9465 C347.7787,81.6525 348.0917,84.5665 347.2867,87.5515 C345.9977,92.3445 342.5037,96.0995 339.3337,96.0995" id="Fill-36" fill="#FF4848"></path>
            <path d="M373.7555,42.1247 L363.3935,80.6047 C365.0065,85.6637 367.9515,92.8537 373.7425,92.8537 C382.6765,92.8537 390.6765,82.2027 395.9465,62.6297 C400.1415,47.0517 399.3515,30.9407 389.0945,30.9407 C384.5435,30.9407 378.4335,35.2017 373.7555,42.1247 M360.5835,90.7237 L350.1505,129.4697 L356.0245,129.4697 C356.6855,129.4697 356.3625,130.6677 355.7015,130.6677 C355.0385,130.6677 348.5745,130.4017 347.2505,130.4017 C346.0105,130.4017 340.0645,130.6677 337.6655,130.6677 C337.0045,130.6677 337.3255,129.4697 337.9865,129.4697 C343.6145,129.4697 344.3975,128.4047 348.3065,113.8917 L367.2405,43.5897 C370.3225,32.1387 368.3455,33.3367 363.8865,34.5357 C363.1885,34.6687 363.5115,33.4707 364.2095,33.3367 C368.6435,32.5387 373.1105,28.5437 376.6045,26.0137 C376.9235,25.7477 378.0225,26.2807 377.8425,26.9457 C377.0895,29.7417 375.7995,34.5357 374.1875,40.5267 C380.4875,31.8727 388.0445,26.5467 394.3315,26.5467 C403.7615,26.5467 408.3085,39.4617 403.3595,57.8357 C397.4455,79.8057 381.3915,95.7837 369.4815,95.7837 C365.2605,95.7837 362.4315,93.3867 360.5835,90.7237" id="Fill-38" fill="#FF4848"></path>
            <path d="M389.095,29.8248 C392.034,29.8248 394.418,30.9898 396.178,33.2868 C400.992,39.5698 399.772,52.7138 397.023,62.9198 C394.739,71.4008 391.94,78.2678 388.74,83.3668 C394.423,76.9308 399.453,68.0558 402.283,57.5468 C405.367,46.0898 404.851,36.1708 400.898,31.0138 C399.194,28.7898 396.984,27.6628 394.332,27.6628 C391.861,27.6628 389.161,28.5528 386.402,30.2128 C387.328,29.9578 388.23,29.8248 389.095,29.8248 L389.095,29.8248 Z M364.557,80.5768 C367,88.0868 370.006,91.7388 373.743,91.7388 C382.139,91.7388 389.839,81.0228 394.87,62.3398 C398.149,50.1618 397.968,39.2898 394.407,34.6438 C393.073,32.9018 391.336,32.0558 389.095,32.0558 C384.83,32.0558 379.095,36.2848 374.784,42.5958 L364.557,80.5768 Z M368.515,32.9688 C368.699,33.0668 368.873,33.1948 369.035,33.3548 C370.299,34.6088 370.124,37.1668 368.317,43.8798 L349.383,114.1818 C346.862,123.5398 345.566,127.6698 343.152,129.4098 C343.369,129.4028 343.582,129.3948 343.789,129.3878 C345.369,129.3328 346.726,129.2868 347.25,129.2868 C347.59,129.2868 348.234,129.3028 349.034,129.3278 L349.074,129.1798 L360.132,88.1148 L361.5,90.0878 C363.609,93.1268 366.294,94.6678 369.481,94.6678 C370.873,94.6678 372.341,94.4298 373.856,93.9688 C373.818,93.9688 373.781,93.9698 373.743,93.9698 C366.483,93.9698 363.359,84.1648 362.33,80.9438 L362.231,80.6318 L362.317,80.3148 L376.557,27.4338 C376.119,27.7608 375.688,28.0908 375.243,28.4298 C373.157,30.0208 370.892,31.7478 368.515,32.9688 L368.515,32.9688 Z M355.701,131.7828 C355.422,131.7828 354.134,131.7368 352.626,131.6828 C350.567,131.6088 348.005,131.5168 347.25,131.5168 C346.738,131.5168 345.411,131.5638 343.867,131.6168 C341.624,131.6948 339.08,131.7828 337.665,131.7828 C337.21,131.7828 336.806,131.5978 336.527,131.2608 C336.304,130.9898 336.187,130.6478 336.187,130.2718 C336.187,129.3458 336.91,128.3538 337.987,128.3538 C342.656,128.3538 343.257,128.3538 347.23,113.6008 L366.164,43.2998 C368.001,36.4758 367.685,35.1788 367.462,34.9378 C367.181,34.7838 365.826,35.1568 364.933,35.4048 L364.176,35.6128 C363.565,35.7318 363.058,35.5728 362.725,35.1878 C362.374,34.7828 362.288,34.1898 362.49,33.6048 C362.738,32.8938 363.317,32.3718 364,32.2418 C367.36,31.6368 370.829,28.9908 373.891,26.6558 C374.606,26.1098 375.295,25.5848 375.95,25.1108 C376.439,24.7008 377.278,24.7198 378.024,25.1998 C378.774,25.6798 379.124,26.4788 378.919,27.2368 L376.643,35.6938 C382.433,29.1928 388.825,25.4318 394.332,25.4318 C397.667,25.4318 400.551,26.8928 402.669,29.6568 C407.041,35.3618 407.702,46.0048 404.436,58.1268 C401.613,68.6138 396.304,78.4438 389.488,85.8068 C382.96,92.8558 375.668,96.8988 369.481,96.8988 C366.27,96.8988 363.405,95.6038 361.09,93.1298 L351.605,128.3538 L356.025,128.3538 C356.48,128.3538 356.884,128.5388 357.161,128.8758 C357.386,129.1458 357.503,129.4878 357.503,129.8648 C357.503,130.7908 356.779,131.7828 355.701,131.7828 L355.701,131.7828 Z" id="Fill-40" fill="#FF4848"></path>
            <path d="M397.3789,93.2531 C402.0959,93.2531 402.9629,91.2561 406.0489,79.8061 L415.6219,44.2551 C418.3479,34.1361 417.2959,33.7361 412.7639,35.2011 C412.0329,35.4671 412.0699,34.4021 412.8049,34.1361 C417.3339,32.6711 420.9949,30.1411 425.1889,26.5471 C425.5079,26.2801 426.6069,26.8131 426.4269,27.4791 L412.3339,79.8061 C409.2519,91.2561 409.0429,93.2531 413.6749,93.2531 C414.3399,93.2531 414.0169,94.4521 413.3539,94.4521 C410.9549,94.4521 406.7249,94.1851 405.4829,94.1851 C404.2429,94.1851 399.4569,94.4521 397.0579,94.4521 C396.3949,94.4521 396.7179,93.2531 397.3789,93.2531 M423.8499,8.1721 C424.8909,4.3111 427.6539,1.1151 430.0529,1.1151 C432.4519,1.1151 433.5759,4.3111 432.5359,8.1721 C431.4959,12.0331 428.6859,15.0961 426.2869,15.0961 C423.8879,15.0961 422.8099,12.0331 423.8499,8.1721" id="Fill-42" fill="#FF4848"></path>
            <path d="M424.9259,8.4626 C424.3689,10.5336 424.4799,12.4846 425.2069,13.4336 C425.4919,13.8066 425.8349,13.9806 426.2869,13.9806 C427.9569,13.9806 430.4919,11.4766 431.4599,7.8826 C432.0239,5.7876 431.8929,3.7896 431.1289,2.7936 C430.8409,2.4146 430.4879,2.2306 430.0529,2.2306 C428.4229,2.2306 425.9179,4.7906 424.9259,8.4626 M426.2869,16.2116 C425.1499,16.2116 424.1379,15.7066 423.4359,14.7906 C422.2659,13.2646 422.0179,10.6826 422.7729,7.8826 C423.9649,3.4626 427.1629,0.0006 430.0529,0.0006 C431.1789,0.0006 432.1909,0.5106 432.8999,1.4356 C434.1059,3.0106 434.3729,5.6376 433.6119,8.4626 C432.4419,12.8076 429.2239,16.2116 426.2869,16.2116 M405.4829,93.0696 C406.0269,93.0696 407.0849,93.1176 408.3079,93.1716 C408.8149,93.1946 409.3609,93.2196 409.9139,93.2426 C409.8419,93.1676 409.7739,93.0876 409.7099,93.0036 C408.3009,91.1666 409.0149,87.8456 411.2579,79.5156 L425.1119,28.0756 C422.6459,30.1436 419.9479,32.1696 416.7999,33.7136 C417.0069,33.8136 417.1999,33.9456 417.3779,34.1146 C418.6769,35.3526 418.5189,37.7896 416.6989,44.5456 L407.1249,80.0956 C405.0859,87.6666 403.9489,91.4966 401.7209,93.2016 C401.9709,93.1916 402.2169,93.1816 402.4539,93.1716 C403.8009,93.1166 404.9559,93.0696 405.4829,93.0696 M413.3539,95.5666 C411.9339,95.5666 409.8679,95.4746 408.2089,95.4006 C407.0169,95.3476 405.9939,95.3006 405.4829,95.3006 C404.9729,95.3006 403.8499,95.3476 402.5459,95.4006 C400.7329,95.4746 398.4759,95.5666 397.0579,95.5666 C396.6019,95.5666 396.1979,95.3816 395.9209,95.0456 C395.6969,94.7756 395.5769,94.4326 395.5769,94.0556 C395.5769,93.1296 396.3009,92.1376 397.3789,92.1376 C401.0439,92.1376 401.7799,91.3586 404.9729,79.5156 L414.5459,43.9646 C416.3109,37.4066 416.1149,35.9916 415.8409,35.7316 C415.7089,35.6416 415.1779,35.5936 413.1079,36.2626 C412.5859,36.4526 412.0369,36.3706 411.6309,36.0306 C411.2269,35.6916 411.0449,35.1506 411.1459,34.5856 C411.2669,33.9036 411.7579,33.3296 412.4249,33.0876 C416.9889,31.6106 420.5339,29.0676 424.4629,25.6996 C425.0209,25.2336 425.8589,25.2516 426.6079,25.7316 C427.3559,26.2116 427.7089,27.0116 427.5029,27.7696 L413.4109,80.0956 C412.0329,85.2156 410.6079,90.5096 411.4799,91.6466 C411.7359,91.9816 412.4339,92.1376 413.6749,92.1376 C414.1309,92.1376 414.5349,92.3226 414.8139,92.6576 C415.0379,92.9296 415.1559,93.2726 415.1559,93.6496 C415.1559,94.5756 414.4319,95.5666 413.3539,95.5666" id="Fill-44" fill="#FF4848"></path>
            <path d="M425.0765,63.8278 C430.2395,44.6548 446.6175,26.5468 458.6965,26.5468 C466.8015,26.5468 471.0765,31.8728 469.8215,36.5328 C469.2115,38.7958 466.9435,41.9918 464.2985,41.9918 C460.8235,41.9918 462.4575,29.4758 454.4305,29.4758 C446.2425,29.4758 436.9445,39.7278 432.0695,57.8358 C427.3335,75.4118 431.6335,88.3278 442.8015,88.3278 C450.5795,88.3278 457.6045,82.2028 465.0035,70.0858 C465.3125,69.5528 465.5975,69.4198 465.7275,69.5528 C465.8555,69.6868 465.8305,70.0858 465.5585,70.4848 C457.1605,84.4658 445.4265,95.7838 436.3275,95.7838 C424.6595,95.7838 420.0195,82.6018 425.0765,63.8278" id="Fill-46" fill="#FF4848"></path>
            <path d="M454.4567,28.3605 C460.1137,28.3775 461.6827,33.7645 462.7227,37.3305 C463.1337,38.7425 463.7567,40.8765 464.2987,40.8765 C466.2807,40.8765 468.2237,38.1775 468.7457,36.2425 C469.1917,34.5855 468.7987,32.8415 467.6417,31.3315 C465.8537,28.9995 462.5937,27.6625 458.6957,27.6625 C457.3317,27.6625 455.9117,27.9035 454.4567,28.3605 M436.8997,42.5555 C432.1777,48.7775 428.2427,56.3605 426.1527,64.1175 C423.0507,75.6405 423.5847,85.2695 427.6207,90.5365 C429.7217,93.2785 433.5007,94.6685 437.1787,94.6685 C441.3147,94.6685 445.4907,92.0195 450.6107,87.4205 C448.0497,88.7795 445.4597,89.4425 442.8017,89.4425 C438.6837,89.4425 435.2397,87.7885 432.8407,84.6585 C428.5367,79.0415 427.8627,69.1585 430.9927,57.5465 C432.5197,51.8765 434.5437,46.8115 436.8997,42.5555 M436.3267,96.8985 C431.9817,96.8985 428.3587,95.1685 425.8497,91.8935 C421.3887,86.0715 420.7137,75.7355 423.9997,63.5375 C429.2737,43.9505 446.1357,25.4315 458.6957,25.4315 C463.2937,25.4315 467.2007,27.0875 469.4117,29.9745 C470.9787,32.0185 471.5207,34.5135 470.8977,36.8225 C470.2167,39.3575 467.6447,43.1075 464.2987,43.1075 C462.0827,43.1075 461.3537,40.6045 460.5807,37.9545 C459.3647,33.7825 458.1417,30.5915 454.4307,30.5915 C447.5267,30.5915 438.2667,39.1055 433.1457,58.1265 C430.2437,68.9025 430.7907,78.3145 434.6117,83.3015 C436.6007,85.8965 439.3557,87.2115 442.8017,87.2115 C449.9237,87.2115 456.6757,81.5855 464.0527,69.5045 C464.4327,68.8485 464.9047,68.4685 465.4447,68.4005 C465.8557,68.3475 466.2417,68.4855 466.5227,68.7715 C467.0607,69.3305 467.0407,70.2905 466.4807,71.1125 C457.0847,86.7565 445.2357,96.8985 436.3267,96.8985" id="Fill-48" fill="#FF4848"></path>
            <path d="M470.3966,77.4094 L481.7626,35.2014 L477.2116,35.2014 C477.1306,35.2014 477.1546,34.8024 477.3916,34.5354 L493.2506,14.9634 C493.4896,14.6974 493.6916,14.5634 493.5476,15.0964 L490.0686,28.0114 C492.5526,28.0114 498.5076,28.0114 501.2736,27.8784 C504.0396,27.7444 504.1686,27.8784 504.0966,28.1444 C503.8816,28.9434 501.6776,31.6064 498.1066,35.3344 C497.4456,35.3344 490.7816,35.2014 487.9676,35.2014 L476.7076,77.0094 C474.1276,86.5964 474.6656,91.6554 478.1406,91.6554 C481.4506,91.6554 486.0026,86.7294 490.3076,77.8084 C490.8446,76.7434 491.7886,77.5414 491.1696,78.6074 C486.1896,87.2624 479.0956,95.7834 473.3866,95.7834 C467.8476,95.7834 466.9546,90.1914 470.3966,77.4094" id="Fill-50" fill="#FF4848"></path>
            <path d="M479.1916,34.0862 L483.2176,34.0862 L471.4726,77.6992 C469.1826,86.2042 468.8606,91.3712 470.4886,93.4962 C471.1016,94.2952 472.0226,94.6682 473.3866,94.6682 C474.7936,94.6682 476.4236,94.0032 478.1796,92.7702 C478.1666,92.7712 478.1536,92.7712 478.1406,92.7712 C476.9086,92.7712 475.8796,92.2782 475.1666,91.3472 C473.4366,89.0912 473.5886,84.3062 475.6316,76.7202 L487.1136,34.0862 L487.9676,34.0862 C489.8726,34.0862 493.5006,34.1462 495.9006,34.1862 C496.6266,34.1972 497.2326,34.2072 497.6346,34.2132 C500.0816,31.6432 501.5166,29.9572 502.2836,28.9532 C502.0196,28.9612 501.7036,28.9742 501.3266,28.9922 C498.5346,29.1262 492.6016,29.1262 490.0686,29.1262 L488.6146,29.1262 L491.3016,19.1452 L479.1916,34.0862 Z M473.3866,96.8982 C471.3296,96.8982 469.7596,96.2102 468.7176,94.8522 C466.5816,92.0642 466.7666,86.5962 469.3206,77.1192 L480.3086,36.3172 L476.4896,36.3172 L476.1666,35.6342 C475.8906,35.0242 476.1556,34.2472 476.5576,33.7942 L492.3836,14.2612 C493.1406,13.4172 493.7816,13.5822 494.0956,13.7542 C494.4116,13.9262 494.8996,14.3652 494.6246,15.3862 L491.5236,26.8952 C494.4076,26.8932 498.9226,26.8742 501.2206,26.7642 C503.7666,26.6392 504.4626,26.6762 504.9506,27.2802 C505.0996,27.4652 505.3276,27.8622 505.1736,28.4342 C504.8926,29.4812 502.7856,32.0612 498.9116,36.1052 L498.5826,36.4492 L498.1066,36.4492 C497.8886,36.4492 497.0266,36.4352 495.8646,36.4162 C493.7946,36.3822 490.8116,36.3322 488.8216,36.3202 L477.7846,77.3002 C475.3046,86.5162 476.3666,89.2452 476.9376,89.9912 C477.2276,90.3712 477.5986,90.5402 478.1406,90.5402 C480.3466,90.5402 484.5956,87.0792 489.3026,77.3242 C489.6576,76.6222 490.2176,76.2142 490.8516,76.1912 C491.4176,76.1662 491.9276,76.4572 492.2276,76.9572 C492.6076,77.5872 492.5706,78.4142 492.1336,79.1672 C489.7426,83.3242 481.3146,96.8982 473.3866,96.8982 L473.3866,96.8982 Z" id="Fill-52" fill="#FF4848"></path>
            <path d="M502.1775,68.7546 L508.7755,44.2546 C511.8615,32.8046 510.6305,33.0706 506.1705,34.2696 C505.4725,34.4026 505.7965,33.2046 506.4945,33.0706 C510.9535,31.8726 514.7065,29.6086 518.2005,27.0796 C518.5195,26.8126 519.6185,27.3456 519.4405,28.0116 L508.1065,70.0866 C503.6615,86.5956 506.9795,91.7886 512.0225,91.7886 C517.2355,91.7886 521.7135,88.0606 527.8965,79.5386 L537.4005,44.2546 C540.4825,32.8046 539.2555,33.0706 534.7955,34.2696 C534.0975,34.4026 534.4215,33.2046 535.1195,33.0706 C539.5785,31.8726 543.2495,29.6086 546.7425,27.0796 C547.0625,26.8126 548.1605,27.3456 547.9805,28.0116 L534.3555,78.6076 C530.7325,92.0546 530.7405,93.2536 534.7925,93.2536 C535.2885,93.2536 534.9645,94.4516 534.4695,94.4516 C529.3425,94.4516 525.7805,95.3836 523.3565,95.7836 C522.6615,95.9166 522.8055,95.3836 523.0185,94.5846 C523.2345,93.7866 525.5675,88.1936 527.4305,81.2706 C520.7735,90.3246 514.5875,95.7836 508.2175,95.7836 C500.7705,95.7836 496.5495,89.6586 502.1775,68.7546" id="Fill-54" fill="#FF4848"></path>
            <path d="M518.9152,27.9357 C518.8812,27.9597 518.8482,27.9837 518.8152,28.0087 C518.8482,27.9877 518.8812,27.9637 518.9152,27.9357 L518.9152,27.9357 Z M528.9202,80.0297 L528.5062,81.5597 C527.0992,86.7947 525.4022,91.3367 524.5872,93.5197 C524.4512,93.8827 524.3182,94.2347 524.2252,94.4947 C524.4032,94.4607 524.5872,94.4257 524.7742,94.3897 C526.5062,94.0587 528.7142,93.6357 531.4602,93.4427 C531.3792,93.3627 531.3022,93.2757 531.2302,93.1817 C529.8952,91.4387 530.6372,88.1227 533.2792,78.3177 L546.7002,28.4787 C544.4562,30.0687 541.9082,31.6897 538.9692,32.9227 C539.1332,33.0177 539.2872,33.1357 539.4302,33.2797 C540.7012,34.5517 540.4882,37.0777 538.4772,44.5447 L528.9202,80.0297 Z M503.2542,69.0437 C500.0692,80.8787 499.8522,88.7037 502.6092,92.3027 C503.8292,93.8937 505.6642,94.6677 508.2172,94.6677 C510.3572,94.6677 512.5572,93.9767 514.8662,92.5557 C513.9312,92.7917 512.9892,92.9037 512.0232,92.9037 C509.8662,92.9037 508.0852,92.0647 506.8692,90.4777 C504.2122,87.0137 504.2682,80.0547 507.0302,69.7967 L518.1602,28.4767 C516.0052,29.9997 513.3952,31.6587 510.3512,32.9257 C510.5112,33.0197 510.6642,33.1377 510.8072,33.2807 C512.0782,34.5527 511.8652,37.0797 509.8522,44.5457 L503.2542,69.0447 L503.2542,69.0437 Z M523.1592,96.9217 C522.6432,96.9217 522.3052,96.6937 522.1052,96.4787 C521.5252,95.8567 521.7362,95.0657 521.9402,94.3017 C522.0082,94.0527 522.1582,93.6427 522.4962,92.7397 C522.9872,91.4277 523.8012,89.2507 524.6732,86.5867 C518.6702,93.6787 513.4782,96.8987 508.2172,96.8987 C504.9692,96.8987 502.4862,95.8087 500.8382,93.6597 C497.5912,89.4217 497.6772,81.1807 501.1012,68.4647 L501.1012,68.4637 L507.6992,43.9647 C509.5472,37.1057 509.5502,35.2257 509.2292,34.8557 C508.9072,34.6857 507.4362,35.0837 506.4612,35.3467 C505.5552,35.5207 504.8442,35.0447 504.6942,34.2597 C504.5252,33.3767 505.1822,32.1857 506.2852,31.9757 C510.8662,30.7417 514.7142,28.2277 517.5462,26.1767 C518.0272,25.7687 518.8692,25.7837 519.6162,26.2617 C520.3682,26.7407 520.7202,27.5407 520.5182,28.2997 L509.1832,70.3757 C505.9802,82.2757 507.1182,87.1377 508.6392,89.1207 C509.4382,90.1647 510.5462,90.6737 512.0232,90.6737 C516.6112,90.6737 520.7832,87.4117 526.8742,79.0497 L536.3242,43.9647 C538.1702,37.1057 538.1742,35.2257 537.8522,34.8557 C537.5492,34.6897 536.0652,35.0827 535.0862,35.3467 C534.1862,35.5207 533.4702,35.0447 533.3192,34.2597 C533.1502,33.3767 533.8082,32.1857 534.9102,31.9757 C539.3482,30.7807 543.0562,28.3717 546.0892,26.1767 C546.5702,25.7687 547.4072,25.7817 548.1622,26.2637 C548.9102,26.7437 549.2632,27.5437 549.0572,28.3027 L535.4312,78.8977 C533.8552,84.7537 532.2222,90.8097 533.0012,91.8247 C533.2162,92.1057 534.1252,92.1377 534.7922,92.1377 C535.2482,92.1377 535.6662,92.3627 535.9132,92.7387 C536.0712,92.9797 536.1552,93.2747 536.1552,93.5927 C536.1552,94.5457 535.4772,95.5667 534.4692,95.5667 C530.4922,95.5667 527.4302,96.1527 525.1932,96.5807 C524.5902,96.6957 524.0392,96.8007 523.5382,96.8837 C523.4022,96.9097 523.2752,96.9217 523.1592,96.9217 L523.1592,96.9217 Z" id="Fill-56" fill="#FF4848"></path>
            <path d="M537.1948,93.2531 C541.2468,93.2531 542.0408,92.4551 545.7728,78.6071 L555.0228,44.2551 C556.0628,40.3941 555.0928,36.9321 553.9428,34.1361 C553.7998,33.7361 553.9578,33.4701 554.1558,33.3371 C555.8978,32.4051 559.3548,30.0091 561.3708,27.7451 C561.6098,27.4791 561.6908,27.4791 561.8308,27.8781 C562.6638,30.0091 563.1598,34.9351 562.0908,40.1281 C564.6588,34.2691 567.7188,31.2071 570.5998,28.8101 C572.3998,27.3451 574.2698,26.5471 575.9258,26.5471 C577.9098,26.5471 579.4678,27.2121 579.0008,28.9431 C578.4278,31.0741 575.8968,35.8671 572.9978,35.8671 L569.9378,35.8671 C567.0438,35.8671 565.4008,36.1331 564.0598,37.7311 C562.6018,39.4621 561.5728,42.6581 559.9608,48.6491 L547.9478,93.2531 L552.9948,93.2531 C553.6568,93.2531 553.3328,94.4521 552.6718,94.4521 C552.0108,94.4521 546.7058,94.1851 545.3838,94.1851 C544.1418,94.1851 539.2708,94.4521 536.8718,94.4521 C536.2108,94.4521 536.5338,93.2531 537.1948,93.2531" id="Fill-58" fill="#FF4848"></path>
            <path d="M575.9263,27.6623 C574.5413,27.6623 572.8993,28.3773 571.3033,29.6753 C569.5963,31.0953 567.8373,32.7453 566.1613,35.1083 C567.2933,34.7943 568.5513,34.7513 569.9383,34.7513 L572.9983,34.7513 C575.0043,34.7513 577.3613,30.7473 577.9243,28.6533 C577.9893,28.4153 577.9833,28.2473 577.9103,28.1513 C577.7223,27.9083 577.0373,27.6623 575.9263,27.6623 M555.1203,34.0763 C556.1233,36.5843 557.2333,40.3403 556.0993,44.5453 L546.8493,78.8973 C544.5053,87.5953 543.2873,91.5283 541.3043,93.2123 C541.6513,93.1993 541.9923,93.1853 542.3193,93.1723 C543.6843,93.1173 544.8563,93.0703 545.3833,93.0703 C545.6973,93.0703 546.2123,93.0833 546.8323,93.1053 L546.8713,92.9633 L558.8843,48.3583 C559.3893,46.4803 559.8353,44.8823 560.2543,43.5143 L560.9983,39.9023 C561.8803,35.6243 561.6323,31.7723 561.1563,29.5633 C559.2183,31.4123 556.7293,33.1503 555.1203,34.0763 M552.6723,95.5673 C552.3933,95.5673 551.3033,95.5213 550.0253,95.4673 C548.2913,95.3923 546.1343,95.3013 545.3833,95.3013 C544.8713,95.3013 543.7343,95.3473 542.4093,95.4003 C540.5743,95.4753 538.2893,95.5673 536.8713,95.5673 C536.4163,95.5673 536.0123,95.3813 535.7343,95.0453 C535.5103,94.7753 535.3933,94.4333 535.3933,94.0573 C535.3933,93.1303 536.1163,92.1383 537.1953,92.1383 C540.3213,92.1383 540.9713,92.1383 544.6963,78.3173 L553.9473,43.9653 C554.9403,40.2743 553.9153,37.0003 552.9103,34.5603 C552.6003,33.6943 552.8523,32.8703 553.5353,32.4113 L553.6303,32.3533 C555.2803,31.4703 558.6183,29.1593 560.5393,27.0023 C560.6913,26.8333 561.1473,26.3283 561.8523,26.4683 C562.5693,26.6113 562.7963,27.2643 562.8833,27.5103 C563.4743,29.0183 563.8603,31.6013 563.8103,34.5863 C565.7723,31.6173 567.8603,29.6373 569.8863,27.9533 C571.9163,26.3003 574.0013,25.4313 575.9263,25.4313 C577.6993,25.4313 578.9973,25.9033 579.6813,26.7943 C580.0373,27.2593 580.3953,28.0593 580.0773,29.2333 C579.5213,31.3023 576.8103,36.9823 572.9983,36.9823 L569.9383,36.9823 C566.9603,36.9823 565.8803,37.2973 564.9143,38.4473 C563.6063,40.0013 562.5813,43.1993 561.0373,48.9383 L549.4023,92.1383 L552.9953,92.1383 C553.4513,92.1383 553.8553,92.3233 554.1323,92.6593 C554.3563,92.9303 554.4743,93.2723 554.4743,93.6483 C554.4743,94.5753 553.7503,95.5673 552.6723,95.5673" id="Fill-60" fill="#FF4848"></path>
            <path d="M576.0475,47.5842 C585.3965,47.5842 591.0835,47.0512 596.4625,47.0512 C597.6195,47.0512 599.7355,46.2522 600.0915,45.8532 C600.8415,44.9202 601.5205,43.3232 601.9875,41.5922 C603.3465,36.5332 602.1045,29.4762 595.7345,29.4762 C588.6185,29.4762 581.3815,35.4672 576.0475,47.5842 M565.8015,63.8282 C571.1795,43.8552 587.4245,26.5472 598.8385,26.5472 C610.7525,26.5472 610.5395,38.3972 608.3945,44.5212 C607.6185,46.7852 606.3735,48.6492 603.8055,48.6492 L575.5955,48.6492 C574.2765,51.7122 573.0935,55.1732 572.0905,58.9012 C567.6825,75.2792 573.0905,88.0602 584.2585,88.0602 C594.3535,88.0602 603.1625,78.0742 611.9795,62.2302 C612.8245,60.6322 613.2945,61.0312 612.4865,62.4962 C606.9985,72.7492 599.8165,83.1342 592.1385,89.5252 C587.4575,93.3872 582.6745,95.7832 577.9575,95.7832 C565.3025,95.7832 560.8495,82.2022 565.8015,63.8282" id="Fill-62" fill="#FF4848"></path>
            <path d="M595.7346,30.5915 C589.0886,30.5915 582.6046,36.3495 577.7866,46.4625 C582.2526,46.4305 585.8236,46.2815 589.0156,46.1495 C591.7546,46.0345 594.1186,45.9355 596.4616,45.9355 C597.2736,45.9355 598.8646,45.3625 599.2796,45.0815 C599.8726,44.3035 600.4796,42.9025 600.9106,41.3015 C601.6476,38.5575 601.6086,34.7655 599.8586,32.4835 C598.8956,31.2285 597.5086,30.5915 595.7346,30.5915 M599.2646,47.5335 L603.8056,47.5335 C605.4716,47.5335 606.5296,46.5245 607.3396,44.1605 C608.7046,40.2625 609.0516,34.4965 606.5936,31.0305 C605.0086,28.7955 602.3986,27.6625 598.8386,27.6625 C597.5476,27.6625 596.1626,27.9155 594.7156,28.3985 C595.0546,28.3735 595.3946,28.3605 595.7346,28.3605 C598.2036,28.3605 600.2426,29.3165 601.6286,31.1265 C603.9926,34.2085 603.8796,38.8465 603.0636,41.8815 C602.7536,43.0355 602.0666,45.1765 600.9606,46.5515 C600.6516,46.8995 600.0036,47.2485 599.2646,47.5335 M576.8206,43.4235 C572.5816,49.2565 568.9686,56.3585 566.8776,64.1175 C563.8256,75.4505 564.3926,84.9765 568.4356,90.2545 C570.6806,93.1835 573.8836,94.6685 577.9576,94.6685 C582.0686,94.6685 586.5996,92.6485 591.4286,88.6655 C592.4006,87.8565 593.3816,86.9655 594.3666,85.9995 C591.0376,88.1475 587.7006,89.1755 584.2586,89.1755 C579.8676,89.1755 576.1506,87.3515 573.5056,83.8995 C569.1956,78.2775 568.2646,68.8245 571.0146,58.6125 C571.9786,55.0215 573.1046,51.6895 574.3616,48.6995 L574.3376,48.6995 L575.0266,47.1345 C575.5976,45.8365 576.1966,44.5985 576.8206,43.4235 M577.9576,96.8985 C573.2206,96.8985 569.3156,95.0705 566.6646,91.6115 C562.1956,85.7785 561.4886,75.5455 564.7256,63.5375 C570.0966,43.5935 586.3556,25.4315 598.8386,25.4315 C603.1646,25.4315 606.3846,26.8815 608.4126,29.7405 C611.3456,33.8745 611.0446,40.3285 609.4466,44.8905 C609.0356,46.0905 607.7766,49.7645 603.8056,49.7645 L576.3336,49.7645 C575.1516,52.6105 574.0856,55.7785 573.1676,59.1915 C570.5976,68.7385 571.3856,77.4675 575.2756,82.5425 C577.4816,85.4225 580.5896,86.9455 584.2586,86.9455 C592.9166,86.9455 601.4156,78.9195 611.0046,61.6875 C611.5846,60.5915 612.1156,60.1075 612.7696,60.0865 L613.4156,60.0665 L613.8296,60.6605 C614.1726,61.2215 614.0606,61.9535 613.4636,63.0345 C607.1196,74.8835 599.7976,84.6005 592.8506,90.3835 C587.6106,94.7075 582.5996,96.8985 577.9576,96.8985" id="Fill-64" fill="#FF4848"></path>
            <path d="M603.6587,90.9904 C603.2807,90.8564 603.2587,90.3244 603.5777,89.1264 C604.1177,87.1294 605.4037,84.1994 610.4587,65.4254 C610.7817,64.2274 611.4437,64.2274 611.1197,65.4254 C608.3977,75.5444 607.3907,83.2674 608.8317,88.0604 C610.0477,92.4544 613.1957,94.5844 618.6547,94.5844 C626.6817,94.5844 631.0237,88.5934 632.9967,81.2704 C635.4687,72.0834 629.9507,68.6214 624.2167,65.0264 C618.2727,61.2984 612.3877,57.0374 615.2567,46.3854 C618.9517,32.6714 629.0397,26.5474 635.9057,26.5474 C642.6877,26.5474 644.6347,27.6114 649.1097,28.8104 C649.5717,28.9434 649.5467,29.3424 649.4037,29.8754 C648.2567,34.1364 643.9697,48.5164 642.7137,53.1764 C642.4267,54.2414 641.7657,54.2414 642.0517,53.1764 C644.0577,45.7194 644.9287,39.7274 644.3737,35.3344 C643.6687,30.2744 640.9097,27.6114 635.7007,27.6114 C628.9147,27.6114 623.0267,32.2724 621.1637,39.1954 C618.7247,48.2494 624.2457,51.7124 629.8597,55.4394 C635.7707,59.3014 641.8537,63.4284 638.6647,75.2794 C635.4727,87.1294 626.6887,95.7834 618.3317,95.7834 C609.8117,95.7834 606.5717,92.4544 603.6587,90.9904" id="Fill-66" fill="#FF4848"></path>
            <g id="Group-70" transform="translate(602.000000, 24.783000)">
                <mask id="mask-4" fill="white">
                    <use xlink:href="#path-3"></use>
                </mask>
                <g id="Clip-69"></g>
                <path d="M39.5728,3.2426 C41.7038,4.6566 43.0118,7.0466 43.4778,10.3976 C43.6228,11.5466 43.6778,12.8066 43.6398,14.1826 C44.7688,10.3036 45.7808,6.8096 46.2848,4.9586 C45.6128,4.7716 44.9858,4.5876 44.3848,4.4106 C42.7448,3.9276 41.3528,3.5166 39.5728,3.2426 L39.5728,3.2426 Z M18.7208,12.1946 C16.9228,14.7886 15.3838,17.9926 14.3328,21.8926 C11.7518,31.4736 16.4288,35.2966 22.8098,39.2986 C28.6858,42.9816 34.7608,46.7906 32.0728,56.7766 C31.6888,58.2066 31.2298,59.5346 30.7008,60.7596 C32.8168,57.7466 34.5268,54.1456 35.5888,50.2056 C38.6008,39.0066 32.8298,35.2366 27.2498,31.5906 L26.9318,31.3796 C21.3038,27.6456 15.4828,23.7846 18.0878,14.1226 C18.2658,13.4596 18.4768,12.8166 18.7208,12.1946 L18.7208,12.1946 Z M2.4908,65.3836 C3.0108,65.6646 3.5358,65.9886 4.0848,66.3276 C5.4478,67.1686 6.9858,68.1186 9.0978,68.8256 C7.4978,67.6126 6.3908,65.8676 5.7568,63.5756 C5.2078,61.7466 4.9778,59.5256 5.0748,56.8466 C4.1698,59.8886 3.5928,61.6656 3.2108,62.8426 C2.9538,63.6346 2.7828,64.1606 2.6548,64.6346 C2.5588,64.9906 2.5128,65.2286 2.4908,65.3836 L2.4908,65.3836 Z M16.3318,72.1156 C9.2118,72.1156 5.5708,69.8676 2.9138,68.2256 C2.2818,67.8356 1.7338,67.4966 1.2048,67.2276 C-0.1942,66.6596 0.2908,64.8416 0.4998,64.0556 C0.6378,63.5506 0.8178,62.9926 1.0898,62.1536 C1.8938,59.6756 3.5668,54.5186 7.3828,40.3526 C7.7918,38.8336 8.6918,38.4956 9.3548,38.6716 C9.7698,38.7836 10.2408,39.1626 10.3118,39.8906 C10.3418,40.1886 10.3028,40.5396 10.1968,40.9336 C7.3638,51.4666 6.6108,58.6706 7.9008,62.9566 C8.9988,66.9266 11.6968,68.6866 16.6548,68.6866 C24.8378,68.6866 28.3848,61.8946 29.9198,56.1976 C32.1778,47.8056 27.2878,44.7386 21.6238,41.1886 C14.9518,37.0036 9.2098,32.3356 12.1798,21.3126 C15.8358,7.7466 25.8778,0.6486 33.9058,0.6486 C39.5118,0.6486 41.9408,1.3646 45.0168,2.2716 C45.7498,2.4876 46.5248,2.7166 47.3978,2.9506 C47.8958,3.0936 48.9568,3.6056 48.4798,5.3816 C47.9138,7.4906 46.6118,11.9556 45.2358,16.6826 C43.8548,21.4246 42.4258,26.3276 41.7898,28.6836 C41.4278,30.0386 40.5498,30.4566 39.8408,30.2636 C39.3308,30.1266 38.9648,29.6866 38.8838,29.1146 C38.8438,28.8206 38.8728,28.4806 38.9758,28.1036 C41.0308,20.4586 41.7808,14.7626 41.2678,10.6906 C40.6268,6.0926 38.2208,3.9446 33.7008,3.9446 C27.3818,3.9446 21.9728,8.2676 20.2398,14.7026 C18.0558,22.8136 22.7398,25.9226 28.1658,29.5206 L28.4768,29.7276 C34.1298,33.4216 41.1768,38.0236 37.7418,50.7856 C34.4668,62.9456 25.2618,72.1156 16.3318,72.1156 L16.3318,72.1156 Z" id="Fill-68" fill="#FF4848" mask="url(#mask-4)"></path>
            </g>
        </g>
    </g>
</svg>